<svg width="50" height="30" viewBox="0 0 50 30" fill="none" xmlns="http://www.w3.org/2000/svg">
<g clip-path="url(#clip0_176_125)">
<path d="M0 6.84C0 4.18327 0 2.85491 0.605959 1.88328C0.928766 1.36568 1.36568 0.928766 1.88328 0.605959C2.85491 0 4.18327 0 6.84 0H43.16C45.8167 0 47.1451 0 48.1167 0.605959C48.6343 0.928766 49.0712 1.36568 49.394 1.88328C50 2.85491 50 4.18327 50 6.84V23.16C50 25.8167 50 27.1451 49.394 28.1167C49.0712 28.6343 48.6343 29.0712 48.1167 29.394C47.1451 30 45.8167 30 43.16 30H6.84C4.18327 30 2.85491 30 1.88328 29.394C1.36568 29.0712 0.928766 28.6343 0.605959 28.1167C0 27.1451 0 25.8167 0 23.16V6.84Z" fill="#DFC672"/>
<rect x="4" y="4" width="42" height="22" rx="2" fill="#FBFEBE"/>
<path d="M46.1113 1.93303C45.8433 1.72693 45.6976 1.39938 45.724 1.06233L45.9049 -1.24935C45.9668 -2.04088 46.8821 -2.44804 47.5115 -1.96403L49.3495 -0.550454C49.6175 -0.344353 49.7632 -0.0168004 49.7368 0.320246L49.5559 2.63193C49.494 3.42346 48.5787 3.83062 47.9493 3.3466L46.1113 1.93303Z" fill="#F6EBB5"/>
<path d="M50.2103 30.5664C50.062 30.8702 49.7703 31.0785 49.4348 31.1201L47.1336 31.4054C46.3457 31.5031 45.7636 30.6878 46.1119 29.9743L47.1291 27.8906C47.2774 27.5868 47.5692 27.3785 47.9047 27.3369L50.2059 27.0516C50.9938 26.9539 51.5758 27.7692 51.2275 28.4826L50.2103 30.5664Z" fill="#F6EBB5"/>
<path d="M-0.749294 29.2555C-1.06687 29.1396 -1.30436 28.8711 -1.38059 28.5417L-1.90345 26.2827C-2.08248 25.5092 -1.33206 24.8455 -0.586261 25.1178L1.59187 25.913C1.90944 26.029 2.14694 26.2975 2.22317 26.6269L2.74603 28.8859C2.92506 29.6594 2.17463 30.323 1.42884 30.0508L-0.749294 29.2555Z" fill="#F6EBB5"/>
<path d="M0.021647 -0.877162C0.136942 -1.10637 0.335924 -1.28249 0.577433 -1.36909L3.5333 -2.42909C4.3833 -2.7339 5.16998 -1.8451 4.7642 -1.03841L3.35309 1.76685C3.2378 1.99605 3.03882 2.17218 2.79731 2.25878L-0.158558 3.31878C-1.00856 3.62359 -1.79524 2.73479 -1.38946 1.9281L0.021647 -0.877162Z" fill="#F6EBB5"/>
<path d="M3 0.399414C17 1.5 46.5 -1 48.5 2.5" stroke="#F6EBB5" stroke-width="2"/>
<path d="M8.01276 31.2549C10.9898 27.2378 30.5038 29.626 30.0153 31.6288" stroke="#F6EBB5" stroke-width="2"/>
<rect x="11.0289" y="-3.2931" width="6" height="22.2145" transform="rotate(43.6075 11.0289 -3.2931)" fill="url(#paint0_linear_176_125)" stroke="#B98262"/>
<rect x="49.4449" y="12.7069" width="6" height="22.8184" transform="rotate(43.6075 49.4449 12.7069)" fill="url(#paint1_linear_176_125)" stroke="#B98262"/>
<path d="M11.86 18L10.123 12.132H11.527L12.193 14.868C12.247 15.078 12.298 15.288 12.346 15.498C12.4 15.708 12.451 15.915 12.499 16.119C12.553 16.323 12.61 16.533 12.67 16.749H12.706C12.76 16.533 12.811 16.323 12.859 16.119C12.907 15.915 12.958 15.708 13.012 15.498C13.066 15.288 13.12 15.078 13.174 14.868L13.903 12.132H15.253L13.453 18H11.86ZM15.88 18V12.132H19.552V13.248H17.203V14.427H19.201V15.534H17.203V16.884H19.642V18H15.88ZM17.023 11.682L18.13 10.305H19.615L19.696 10.449L18.112 11.682H17.023ZM22.6124 18V12.132H24.0884L25.0244 14.742C25.0844 14.916 25.1384 15.093 25.1864 15.273C25.2404 15.447 25.2944 15.63 25.3484 15.822H25.3844C25.4384 15.63 25.4894 15.447 25.5374 15.273C25.5854 15.093 25.6394 14.916 25.6994 14.742L26.6174 12.132H28.0934V18H26.8784V15.849C26.8784 15.657 26.8874 15.432 26.9054 15.174C26.9294 14.91 26.9534 14.649 26.9774 14.391C27.0074 14.127 27.0344 13.899 27.0584 13.707H27.0224L26.5454 15.255L25.7174 17.496H24.9434L24.1244 15.255L23.6654 13.707H23.6294C23.6534 13.899 23.6774 14.127 23.7014 14.391C23.7314 14.649 23.7554 14.91 23.7734 15.174C23.7914 15.432 23.8004 15.657 23.8004 15.849V18H22.6124ZM31.7809 18.108C31.3969 18.108 31.0579 18.057 30.7639 17.955C30.4759 17.847 30.2329 17.682 30.0349 17.46C29.8369 17.232 29.6869 16.944 29.5849 16.596C29.4829 16.248 29.4319 15.834 29.4319 15.354V12.132H30.7639V15.489C30.7639 15.855 30.8029 16.146 30.8809 16.362C30.9589 16.572 31.0729 16.725 31.2229 16.821C31.3729 16.917 31.5589 16.965 31.7809 16.965C31.9969 16.965 32.1829 16.917 32.3389 16.821C32.4949 16.725 32.6119 16.572 32.6899 16.362C32.7739 16.146 32.8159 15.855 32.8159 15.489V12.132H34.0939V15.354C34.0939 15.834 34.0429 16.248 33.9409 16.596C33.8449 16.944 33.6979 17.232 33.4999 17.46C33.3079 17.682 33.0679 17.847 32.7799 17.955C32.4919 18.057 32.1589 18.108 31.7809 18.108ZM34.6008 18L36.4368 12.132H38.0208L39.8658 18H38.4618L37.6968 15.03C37.6128 14.736 37.5318 14.424 37.4538 14.094C37.3758 13.764 37.2978 13.446 37.2198 13.14H37.1838C37.1178 13.446 37.0458 13.764 36.9678 14.094C36.8898 14.424 36.8088 14.736 36.7248 15.03L35.9508 18H34.6008ZM35.8068 16.605V15.57H38.6328V16.605H35.8068Z" fill="#7C4C31"/>
</g>
<rect x="0.5" y="0.5" width="49" height="29" rx="1.5" stroke="#B98262"/>
<defs>
<linearGradient id="paint0_linear_176_125" x1="14.5117" y1="-4" x2="14.5117" y2="19.2145" gradientUnits="userSpaceOnUse">
<stop offset="0.404167" stop-color="#F26509"/>
<stop offset="1" stop-color="#F8A13A"/>
</linearGradient>
<linearGradient id="paint1_linear_176_125" x1="52.9277" y1="12" x2="52.9277" y2="35.8184" gradientUnits="userSpaceOnUse">
<stop offset="0.404167" stop-color="#F26509"/>
<stop offset="1" stop-color="#F8A13A"/>
</linearGradient>
<clipPath id="clip0_176_125">
<rect width="50" height="30" rx="2" fill="white"/>
</clipPath>
</defs>
</svg>
