<svg width="25" height="26" viewBox="0 0 25 26" fill="none" xmlns="http://www.w3.org/2000/svg">
<g clip-path="url(#clip0_192_2)">
<g filter="url(#filter0_d_192_2)">
<path d="M15.9741 12.3V8.69998C15.9741 7.9839 15.6851 7.29715 15.1706 6.79081C14.6561 6.28446 13.9582 6 13.2306 6L9.57256 14.0999V23.9999H19.8882C20.3293 24.0048 20.7574 23.8527 21.0935 23.5715C21.4296 23.2903 21.6511 22.8991 21.7173 22.4699L22.9793 14.3699C23.0191 14.112 23.0014 13.8486 22.9275 13.598C22.8535 13.3474 22.7251 13.1156 22.5512 12.9187C22.3772 12.7218 22.1618 12.5645 21.9199 12.4577C21.678 12.3508 21.4154 12.297 21.1503 12.3H15.9741ZM9.57256 23.9999H6.82902C6.34394 23.9999 5.87872 23.8102 5.53571 23.4727C5.1927 23.1351 5 22.6773 5 22.1999V15.8999C5 15.4226 5.1927 14.9647 5.53571 14.6272C5.87872 14.2896 6.34394 14.0999 6.82902 14.0999H9.57256" fill="#FED3B1"/>
<path d="M9.57256 23.9999H6.82902C6.34394 23.9999 5.87872 23.8102 5.53571 23.4727C5.1927 23.1351 5 22.6773 5 22.1999V15.8999C5 15.4226 5.1927 14.9647 5.53571 14.6272C5.87872 14.2896 6.34394 14.0999 6.82902 14.0999H9.57256M15.9741 12.3V8.69998C15.9741 7.9839 15.6851 7.29715 15.1706 6.79081C14.6561 6.28446 13.9582 6 13.2306 6L9.57256 14.0999V23.9999H19.8882C20.3293 24.0048 20.7574 23.8527 21.0935 23.5715C21.4296 23.2903 21.6511 22.8991 21.7173 22.4699L22.9793 14.3699C23.0191 14.112 23.0014 13.8486 22.9275 13.598C22.8535 13.3474 22.7251 13.1156 22.5512 12.9187C22.3772 12.7218 22.1618 12.5645 21.9199 12.4577C21.678 12.3508 21.4154 12.297 21.1503 12.3H15.9741Z" stroke="#FED3B1" stroke-width="2" stroke-linecap="round" stroke-linejoin="round"/>
</g>
<g filter="url(#filter1_d_192_2)">
<path d="M7 22H4C3.46957 22 2.96086 21.7893 2.58579 21.4142C2.21071 21.0391 2 20.5304 2 20V13C2 12.4696 2.21071 11.9609 2.58579 11.5858C2.96086 11.2107 3.46957 11 4 11H7M14 9V5C14 4.20435 13.6839 3.44129 13.1213 2.87868C12.5587 2.31607 11.7956 2 11 2L7 11V22H18.28C18.7623 22.0055 19.2304 21.8364 19.5979 21.524C19.9654 21.2116 20.2077 20.7769 20.28 20.3L21.66 11.3C21.7035 11.0134 21.6842 10.7207 21.6033 10.4423C21.5225 10.1638 21.3821 9.90629 21.1919 9.68751C21.0016 9.46873 20.7661 9.29393 20.5016 9.17522C20.2371 9.0565 19.9499 8.99672 19.66 9H14Z" stroke="#DA873C" stroke-width="2" stroke-linecap="round" stroke-linejoin="round" shape-rendering="crispEdges"/>
</g>
</g>
<defs>
<filter id="filter0_d_192_2" x="3" y="4" width="22" height="22" filterUnits="userSpaceOnUse" color-interpolation-filters="sRGB">
<feFlood flood-opacity="0" result="BackgroundImageFix"/>
<feColorMatrix in="SourceAlpha" type="matrix" values="0 0 0 0 0 0 0 0 0 0 0 0 0 0 0 0 0 0 127 0" result="hardAlpha"/>
<feOffset/>
<feGaussianBlur stdDeviation="0.5"/>
<feComposite in2="hardAlpha" operator="out"/>
<feColorMatrix type="matrix" values="0 0 0 0 0.854902 0 0 0 0 0.529412 0 0 0 0 0.235294 0 0 0 1 0"/>
<feBlend mode="normal" in2="BackgroundImageFix" result="effect1_dropShadow_192_2"/>
<feBlend mode="normal" in="SourceGraphic" in2="effect1_dropShadow_192_2" result="shape"/>
</filter>
<filter id="filter1_d_192_2" x="0" y="0" width="23.6836" height="24" filterUnits="userSpaceOnUse" color-interpolation-filters="sRGB">
<feFlood flood-opacity="0" result="BackgroundImageFix"/>
<feColorMatrix in="SourceAlpha" type="matrix" values="0 0 0 0 0 0 0 0 0 0 0 0 0 0 0 0 0 0 127 0" result="hardAlpha"/>
<feOffset/>
<feGaussianBlur stdDeviation="0.5"/>
<feComposite in2="hardAlpha" operator="out"/>
<feColorMatrix type="matrix" values="0 0 0 0 0.854902 0 0 0 0 0.529412 0 0 0 0 0.235294 0 0 0 1 0"/>
<feBlend mode="normal" in2="BackgroundImageFix" result="effect1_dropShadow_192_2"/>
<feBlend mode="normal" in="SourceGraphic" in2="effect1_dropShadow_192_2" result="shape"/>
</filter>
<clipPath id="clip0_192_2">
<rect width="25" height="26" fill="white"/>
</clipPath>
</defs>
</svg>
