<svg width="26" height="26" viewBox="0 0 26 26" fill="#1983FF" xmlns="http://www.w3.org/2000/svg">
<rect x="1" y="1" width="24" height="24" rx="12" />
<g filter="url(#filter0_di_173_14)">
<path d="M14.5383 15.928L14.8263 15.72C15.189 15.5067 15.445 15.4 15.5943 15.4C15.925 15.4 16.2823 15.6987 16.6663 16.296C16.901 16.6693 17.0183 16.968 17.0183 17.192C17.0183 17.416 16.9436 17.6027 16.7943 17.752C16.6556 17.9013 16.4903 18.0347 16.2983 18.152C16.1063 18.2693 15.9196 18.3813 15.7383 18.488C15.5676 18.5947 15.2103 18.7333 14.6663 18.904C14.1223 19.0747 13.5943 19.16 13.0823 19.16C12.581 19.16 12.069 19.096 11.5463 18.968C11.0343 18.8293 10.501 18.6053 9.94631 18.296C9.40231 17.976 8.91165 17.592 8.47431 17.144C8.03698 16.6853 7.67431 16.104 7.38631 15.4C7.10898 14.6853 6.97031 13.912 6.97031 13.08C6.97031 12.248 7.10898 11.496 7.38631 10.824C7.66365 10.1413 8.01565 9.58133 8.44231 9.144C8.87965 8.696 9.37565 8.32267 9.93031 8.024C10.9756 7.448 12.0263 7.16 13.0823 7.16C13.5836 7.16 14.0903 7.24 14.6023 7.4C15.125 7.54933 15.5196 7.704 15.7863 7.864L16.1703 8.088C16.3623 8.20533 16.5116 8.30133 16.6183 8.376C16.8956 8.6 17.0343 8.856 17.0343 9.144C17.0343 9.42133 16.9223 9.71467 16.6983 10.024C16.2823 10.6 15.909 10.888 15.5783 10.888C15.3863 10.888 15.1143 10.7707 14.7623 10.536C14.3143 10.1733 13.717 9.992 12.9703 9.992C12.277 9.992 11.5943 10.232 10.9223 10.712C10.6023 10.9467 10.3356 11.2773 10.1223 11.704C9.90898 12.1307 9.80231 12.616 9.80231 13.16C9.80231 13.6933 9.90898 14.1733 10.1223 14.6C10.3356 15.0267 10.6076 15.3627 10.9383 15.608C11.589 16.0773 12.2663 16.312 12.9703 16.312C13.301 16.312 13.6103 16.2693 13.8983 16.184C14.197 16.0987 14.4103 16.0133 14.5383 15.928Z" fill="white"/>
</g>
<defs>
<filter id="filter0_di_173_14" x="6.9707" y="6.16016" width="10.0635" height="13" filterUnits="userSpaceOnUse" color-interpolation-filters="sRGB">
<feFlood flood-opacity="0" result="BackgroundImageFix"/>
<feColorMatrix in="SourceAlpha" type="matrix" values="0 0 0 0 0 0 0 0 0 0 0 0 0 0 0 0 0 0 127 0" result="hardAlpha"/>
<feOffset dy="-1"/>
<feComposite in2="hardAlpha" operator="out"/>
<feColorMatrix type="matrix" values="0 0 0 0 0 0 0 0 0 0 0 0 0 0 0 0 0 0 0.35 0"/>
<feBlend mode="normal" in2="BackgroundImageFix" result="effect1_dropShadow_173_14"/>
<feBlend mode="normal" in="SourceGraphic" in2="effect1_dropShadow_173_14" result="shape"/>
<feColorMatrix in="SourceAlpha" type="matrix" values="0 0 0 0 0 0 0 0 0 0 0 0 0 0 0 0 0 0 127 0" result="hardAlpha"/>
<feOffset dy="-1"/>
<feComposite in2="hardAlpha" operator="arithmetic" k2="-1" k3="1"/>
<feColorMatrix type="matrix" values="0 0 0 0 0.0980392 0 0 0 0 0.513726 0 0 0 0 1 0 0 0 0.3 0"/>
<feBlend mode="normal" in2="shape" result="effect2_innerShadow_173_14"/>
</filter>
</defs>
</svg>
