<?xml version="1.0" encoding="utf-8"?>
<!-- Generator: Adobe Illustrator 22.0.1, SVG Export Plug-In . SVG Version: 6.00 Build 0)  -->
<svg version="1.1" id="Layer_1" xmlns="http://www.w3.org/2000/svg" xmlns:xlink="http://www.w3.org/1999/xlink" x="0px" y="0px" viewBox="0 0 593.8 143.1" fill="#ffffff" style="enable-background:new 0 0 593.8 143.1;" xml:space="preserve">
<style type="text/css">
	<!-- .st0{fill:#000000;} -->
</style>
<title>Logo Comico</title>
<g>
	<path class="st0" d="M150.5,38.2C150.5,38.2,150.5,38.2,150.5,38.2c-29,0-52.5,23.5-52.4,52.5c0,29,23.5,52.4,52.5,52.4
		c29,0,52.4-23.5,52.4-52.4C203,61.6,179.5,38.2,150.5,38.2z M150.5,115.1L150.5,115.1c-13.5,0-24.5-10.9-24.5-24.5
		c0-13.5,11-24.5,24.5-24.5c13.5,0,24.5,11,24.5,24.5C175,104.2,164,115.1,150.5,115.1z"/>
	<path class="st0" d="M541.4,38.2c-29,0-52.4,23.5-52.4,52.4c0,29,23.5,52.4,52.4,52.4s52.4-23.5,52.4-52.4
		C593.8,61.6,570.3,38.2,541.4,38.2z M541.4,115.1L541.4,115.1c-13.5,0-24.5-10.9-24.5-24.5c0-13.5,11-24.5,24.5-24.5
		c13.5,0,24.5,11,24.5,24.5C565.9,104.2,554.9,115.1,541.4,115.1z"/>
	<path class="st0" d="M88,52.6c0.5,0.4,1,0.9,1.5,1.5C89,53.6,88.5,53.1,88,52.6z"/>
	<path class="st0" d="M46.7,67.5c1.3-0.3,2.7-0.5,4-0.6c8.2-0.4,15.2,2.7,21.8,7.3c5.3,3.7,10.6,3.4,14.8-0.1
		c3-2.6,4.5-6.4,4.2-10.3c0,0,0-0.1,0-0.2c-0.1-1.2-0.5-2.3-1-3.4c-2.3-6.1-9.6-18-31.4-20.9c-0.3,0-0.6-0.1-0.9-0.1
		c-1.7-0.2-3.3-0.4-5-0.4c-0.3,0-0.6,0-0.9,0c-4.2-0.2-8.4,0.1-12.5,1c-12.8,2.8-24,10.7-31,21.8C4.1,68,1.2,75.8,0.4,83.9
		c-0.1,0.7-0.1,1.3-0.2,1.9c-0.9,8.8,0.4,17.7,3.8,25.9c0.1,0.3,0.2,0.5,0.3,0.8c0.2,0.5,0.5,1,0.7,1.5
		c5.4,10.9,14.5,19.5,25.6,24.5c4.3,1.6,8.7,2.7,13.2,3.4h0.1h0.3c0.8,0.1,1.6,0.2,2.4,0.3c6,0.6,10.2,0.5,12.9-0.2
		c10.9-1.4,20.9-6.8,28-15.2c5-5.7,5.1-13.9,0.7-18.8c-4.3-4.5-10.3-4.2-17.3,0.1c-4.2,2.7-8.8,4.7-13.6,5.9
		c-12.9,2.9-25.7-5.1-28.6-18C25.8,83.2,33.8,70.4,46.7,67.5z"/>
	<path class="st0" d="M442.1,66.9c8.3-0.4,15.4,2.7,22.1,7.3c5.3,3.7,10.8,3.4,15-0.1c3-2.6,4.6-6.4,4.2-10.3c0-0.1,0-0.1,0-0.2
		c-0.1-1.2-0.5-2.3-1-3.4c-2.3-6.1-9.7-18-31.8-20.9c-0.4-0.1-0.9-0.1-1.3-0.2c-1.5-0.2-3.1-0.3-4.7-0.4c-0.3,0-0.6,0-1,0
		c-4.2-0.2-8.5,0.1-12.7,1c-13,2.8-24.3,10.6-31.5,21.8c-4.8,6.6-7.8,14.4-8.5,22.5c-0.1,0.7-0.1,1.3-0.2,1.9
		c-0.9,8.8,0.4,17.7,3.8,25.9c0.1,0.3,0.2,0.5,0.3,0.8c0.2,0.5,0.5,1,0.8,1.5c1.9,3.6,4.1,7.1,6.8,10.2c5.2,6.1,11.8,11,19.1,14.3
		c4.3,1.6,8.8,2.7,13.4,3.4h0.1h0.3c0.8,0.1,1.6,0.2,2.4,0.3c6.1,0.6,10.3,0.5,13.1-0.2c11-1.4,21.1-6.8,28.4-15.1
		c5.1-5.7,5.2-13.9,0.7-18.8c-4.2-4.6-10.3-4.3-17.5,0c-4.3,2.7-8.9,4.7-13.8,5.9c-13.1,3.1-26.2-5.1-29.2-18.2
		c-0.2-0.8-0.3-1.7-0.4-2.5C417.6,79.9,428.3,67.6,442.1,66.9z"/>
	<ellipse transform="matrix(0.7071 -0.7071 0.7071 0.7071 95.9719 261.7366)" class="st0" cx="363.9" cy="15" rx="15" ry="15"/>
	<path class="st0" d="M363.9,38.2c-12.4,0-15,21-15,28.9v47.1c0,6.6,1.2,14.4,4.4,20.4c2,3.7,5.7,8.5,10.6,8.5c12.4,0,15-21,15-28.9
		V67c0-6.6-1.2-14.5-4.4-20.4C372.5,42.9,368.8,38.2,363.9,38.2z"/>
	<path class="st0" d="M314.1,43.3c-4.8-6.9-11.1-6.5-17.2-0.6c-13.3,11.4-24.5,40.8-24.5,40.8c-3.7-11-17.7-33.1-22.8-40.2
		c-1.4-1.9-3.3-3.4-5.4-4.3c-1.6-0.6-3.2-0.9-4.9-0.8c-2.1,0.2-4.1,0.8-6,1.9c-2.9,2-5.7,5.6-8.2,10.8c-10.9,22-14.8,45.6-14.7,69.8
		c0,0-2,18,7.6,21.7c0.2,0.1,0.5,0.2,0.7,0.3c0.3,0.1,0.6,0.2,0.9,0.2h0.1h0.1h0.3c11.3,1.3,17.6-22.3,17.6-22.3l6.3-22.7
		c4,8.7,13.3,26.9,23.4,32c1.2,0.7,2.6,1.1,4,1.3c11.8,1.4,24.5-23.6,29.4-34.4c1.8,11.2,7.3,39.4,19.4,45.2
		c0.8,0.4,1.7,0.7,2.6,0.9h0.1c3.6,0.5,7.2-1.7,9.2-6.4c1.5-3.8,2.3-7.8,2.4-11.8c0.6-19.9-2.3-39.8-8.7-58.7
		C322.9,57.9,319,50.3,314.1,43.3z"/>
</g>
</svg>
