<svg width="276" height="227" viewBox="0 0 276 227" fill="none" xmlns="http://www.w3.org/2000/svg">
<path d="M130 152H0V226.5H180.5C186 226.5 190.5 222.5 184 216C177.5 209.5 157 199 157 176C157 153 137 152 130 152Z" fill="url(#paint0_linear_1_384)"/>
<path fill-rule="evenodd" clip-rule="evenodd" d="M83.5 132C77.4249 132 72.5 136.925 72.5 143C72.5 149.075 77.4249 154 83.5 154H118.5C124.575 154 129.5 149.075 129.5 143C129.5 136.925 124.575 132 118.5 132H83.5ZM85.5 148C88.2614 148 90.5 145.761 90.5 143C90.5 140.239 88.2614 138 85.5 138C82.7386 138 80.5 140.239 80.5 143C80.5 145.761 82.7386 148 85.5 148ZM106.5 143C106.5 145.761 104.261 148 101.5 148C98.7386 148 96.5 145.761 96.5 143C96.5 140.239 98.7386 138 101.5 138C104.261 138 106.5 140.239 106.5 143ZM117.5 148C120.261 148 122.5 145.761 122.5 143C122.5 140.239 120.261 138 117.5 138C114.739 138 112.5 140.239 112.5 143C112.5 145.761 114.739 148 117.5 148Z" fill="#33474F"/>
<path d="M160.167 15.5675C174.45 5.14218 193.692 0 214.5 0C235.308 0 264.5 13.5 276 27L261.5 42.5C251.5 33 239 23 214.5 23C191.5 23 175.5 28.5 165 42V33H157.5V23H160.167V15.5675Z" fill="#EEEEEE"/>
<path d="M176.5 51.5V48.5C180.167 44 192.7 35 213.5 35C234.3 35 247.833 46.6667 252 52.5L239.5 66.5C236.167 62.3333 226.3 54 213.5 54C200.7 54 188.833 62.3333 184.5 66.5V56.5H180V51.5H176.5Z" fill="#EEEEEE"/>
<path d="M212.5 70C206.5 70 198.5 74.5 198.5 76V80.5L212.5 92C212.5 92 221 86.5 225.5 80.5V76C225.5 75 219 70 212.5 70Z" fill="#FF5F62"/>
<path d="M111.5 102C109.291 102 107.5 103.791 107.5 106V118H98.5V117C98.5 115.895 97.6046 115 96.5 115H85.5C84.3954 115 83.5 115.895 83.5 117V118H78.5C76.8431 118 75.5 119.343 75.5 121V129C75.5 130.657 76.8431 132 78.5 132H123.5C125.157 132 126.5 130.657 126.5 129V111.5C126.5 106.253 122.247 102 117 102H111.5Z" fill="#EEEEEE"/>
<circle cx="148.5" cy="80" r="4" stroke="#EEEEEE" stroke-width="2"/>
<path fill-rule="evenodd" clip-rule="evenodd" d="M140.5 81.5H140.96C141.966 84.1314 144.515 86 147.5 86C150.485 86 153.034 84.1314 154.04 81.5H154.5L165.799 110.976C165.031 110.365 164.058 110 163 110C160.515 110 158.5 112.015 158.5 114.5C158.5 114.665 158.509 114.828 158.526 114.988L158.5 115L146.5 87.5L121.5 113.5L113.5 107L140.5 81.5Z" fill="#EEEEEE"/>
<circle cx="163.5" cy="115" r="3" stroke="#E0E0E0" stroke-width="2"/>
<rect x="179.5" y="171" width="14" height="14" fill="#EEF8F7"/>
<rect x="179.5" y="155" width="7" height="7" fill="#EEF8F7"/>
<rect x="186.5" y="148" width="7" height="7" fill="#EEF8F7"/>
<rect x="198.5" y="156" width="7" height="7" fill="#EEF8F7"/>
<rect x="180.5" y="135" width="4" height="4" fill="#EEF8F7"/>
<rect x="174.5" y="118.32" width="8.64004" height="8.26222" transform="rotate(-30 174.5 118.32)" fill="#EEF8F7"/>
<rect x="179.342" y="97" width="8.64004" height="8.26222" transform="rotate(45 179.342 97)" fill="#EEF8F7"/>
<path d="M176 101L164 111C164.333 111.333 165.2 112 166 112H170.5C175.833 116.5 186.6 125.6 187 126C187.5 125.5 191.5 118.5 191.5 113.5C191.5 109.5 185.5 103.5 182.5 101H176Z" fill="#E0E0E0"/>
<path d="M184.5 128V123C184.5 120 188.5 120 188.5 122C188.5 123.6 187.167 126.667 186.5 128H184.5Z" fill="#33474F"/>
<defs>
<linearGradient id="paint0_linear_1_384" x1="153.5" y1="189" x2="25.5" y2="189" gradientUnits="userSpaceOnUse">
<stop stop-color="#EFEFEF"/>
<stop offset="1" stop-color="#EFEFEF" stop-opacity="0"/>
</linearGradient>
</defs>
</svg>
