<svg width="50" height="30" viewBox="0 0 50 30" fill="none" xmlns="http://www.w3.org/2000/svg">
<g clip-path="url(#clip0_177_138)">
<path d="M0 6.84C0 4.18327 0 2.85491 0.605959 1.88328C0.928766 1.36568 1.36568 0.928766 1.88328 0.605959C2.85491 0 4.18327 0 6.84 0H43.16C45.8167 0 47.1451 0 48.1167 0.605959C48.6343 0.928766 49.0712 1.36568 49.394 1.88328C50 2.85491 50 4.18327 50 6.84V23.16C50 25.8167 50 27.1451 49.394 28.1167C49.0712 28.6343 48.6343 29.0712 48.1167 29.394C47.1451 30 45.8167 30 43.16 30H6.84C4.18327 30 2.85491 30 1.88328 29.394C1.36568 29.0712 0.928766 28.6343 0.605959 28.1167C0 27.1451 0 25.8167 0 23.16V6.84Z" fill="#CED9E3"/>
<rect x="4" y="4" width="42" height="22" rx="2" fill="white"/>
<path d="M46.1113 1.93303C45.8433 1.72693 45.6976 1.39938 45.724 1.06233L45.9049 -1.24935C45.9668 -2.04088 46.8821 -2.44804 47.5115 -1.96403L49.3495 -0.550454C49.6175 -0.344353 49.7632 -0.0168004 49.7368 0.320246L49.5559 2.63193C49.494 3.42346 48.5787 3.83062 47.9493 3.3466L46.1113 1.93303Z" fill="#F0FAFB"/>
<path d="M50.2103 30.5664C50.062 30.8702 49.7703 31.0785 49.4348 31.1201L47.1336 31.4054C46.3457 31.5031 45.7636 30.6878 46.1119 29.9743L47.1291 27.8906C47.2774 27.5868 47.5692 27.3785 47.9047 27.3369L50.2059 27.0516C50.9938 26.9539 51.5758 27.7692 51.2275 28.4826L50.2103 30.5664Z" fill="#F0FAFB"/>
<path d="M-0.749294 29.2555C-1.06687 29.1396 -1.30436 28.8711 -1.38059 28.5417L-1.90345 26.2827C-2.08248 25.5092 -1.33206 24.8455 -0.586261 25.1178L1.59187 25.913C1.90944 26.029 2.14694 26.2975 2.22317 26.6269L2.74603 28.8859C2.92506 29.6594 2.17463 30.323 1.42884 30.0508L-0.749294 29.2555Z" fill="#F0FAFB"/>
<path d="M0.021647 -0.877162C0.136942 -1.10637 0.335924 -1.28249 0.577433 -1.36909L3.5333 -2.42909C4.3833 -2.7339 5.16998 -1.8451 4.7642 -1.03841L3.35309 1.76685C3.2378 1.99605 3.03882 2.17218 2.79731 2.25878L-0.158558 3.31878C-1.00856 3.62359 -1.79524 2.73479 -1.38946 1.9281L0.021647 -0.877162Z" fill="#F0FAFB"/>
<path d="M3 0.399414C17 1.5 46.5 -1 48.5 2.5" stroke="#F0FAFB" stroke-width="2"/>
<path d="M8.01276 31.2549C10.9898 27.2378 30.5038 29.626 30.0153 31.6288" stroke="#F0FAFB" stroke-width="2"/>
<rect x="11.0289" y="-3.2931" width="6" height="22.2145" transform="rotate(43.6075 11.0289 -3.2931)" fill="url(#paint0_linear_177_138)" stroke="#4A8BB9"/>
<rect x="49.4449" y="12.7069" width="6" height="22.8184" transform="rotate(43.6075 49.4449 12.7069)" fill="url(#paint1_linear_177_138)" stroke="#4A8BB9"/>
<path d="M9.81658 18L8.07958 12.132H9.48358L10.1496 14.868C10.2036 15.078 10.2546 15.288 10.3026 15.498C10.3566 15.708 10.4076 15.915 10.4556 16.119C10.5096 16.323 10.5666 16.533 10.6266 16.749H10.6626C10.7166 16.533 10.7676 16.323 10.8156 16.119C10.8636 15.915 10.9146 15.708 10.9686 15.498C11.0226 15.288 11.0766 15.078 11.1306 14.868L11.8596 12.132H13.2096L11.4096 18H9.81658ZM13.8366 18V12.132H17.5086V13.248H15.1596V14.427H17.1576V15.534H15.1596V16.884H17.5986V18H13.8366ZM14.9796 11.682L16.0866 10.305H17.5716L17.6526 10.449L16.0686 11.682H14.9796ZM21.712 18V13.248H20.101V12.132H24.655V13.248H23.044V18H21.712ZM25.57 18V12.132H26.893V14.391H28.918V12.132H30.25V18H28.918V15.552H26.893V18H25.57ZM33.9474 18.108C33.5634 18.108 33.2244 18.057 32.9304 17.955C32.6424 17.847 32.3994 17.682 32.2014 17.46C32.0034 17.232 31.8534 16.944 31.7514 16.596C31.6494 16.248 31.5984 15.834 31.5984 15.354V12.132H32.9304V15.489C32.9304 15.855 32.9694 16.146 33.0474 16.362C33.1254 16.572 33.2394 16.725 33.3894 16.821C33.5394 16.917 33.7254 16.965 33.9474 16.965C34.1634 16.965 34.3494 16.917 34.5054 16.821C34.6614 16.725 34.7784 16.572 34.8564 16.362C34.9404 16.146 34.9824 15.855 34.9824 15.489V12.132H36.2604V15.354C36.2604 15.834 36.2094 16.248 36.1074 16.596C36.0114 16.944 35.8644 17.232 35.6664 17.46C35.4744 17.682 35.2344 17.847 34.9464 17.955C34.6584 18.057 34.3254 18.108 33.9474 18.108ZM37.6198 18V12.132H41.2918V13.248H38.9428V14.427H40.9408V15.534H38.9428V16.884H41.3818V18H37.6198ZM37.6648 11.682L38.8528 10.305H40.2208L41.4088 11.682H40.3918L39.5548 11.052H39.5188L38.6818 11.682H37.6648Z" fill="#2D6994"/>
</g>
<rect x="0.5" y="0.5" width="49" height="29" rx="1.5" stroke="#4A8BB9"/>
<defs>
<linearGradient id="paint0_linear_177_138" x1="14.5117" y1="-4" x2="14.5117" y2="19.2145" gradientUnits="userSpaceOnUse">
<stop offset="0.258333" stop-color="#ECFF0F"/>
<stop offset="1" stop-color="#F5F3B8"/>
</linearGradient>
<linearGradient id="paint1_linear_177_138" x1="52.9277" y1="12" x2="52.9277" y2="35.8184" gradientUnits="userSpaceOnUse">
<stop offset="0.258333" stop-color="#ECFF0F"/>
<stop offset="1" stop-color="#F5F3B8"/>
</linearGradient>
<clipPath id="clip0_177_138">
<rect width="50" height="30" rx="2" fill="white"/>
</clipPath>
</defs>
</svg>
