<svg width="300" height="300" viewBox="0 0 300 300" fill="none" xmlns="http://www.w3.org/2000/svg">
<path d="M163.5 277C230.603 277 285 222.603 285 155.5C285 88.3974 230.603 34 163.5 34C96.3974 34 42 88.3974 42 155.5C42 222.603 96.3974 277 163.5 277Z" fill="url(#paint0_linear_1413_675)"/>
<path d="M153.078 32.124L57 109.439V234.5C57 245.546 65.9543 254.5 77 254.5H253.591C264.637 254.5 273.591 245.546 273.591 234.5V109.439L178.206 32.1652C170.886 26.2344 160.418 26.2172 153.078 32.124Z" fill="#011625"/>
<rect x="88.2529" y="55.9443" width="154.812" height="192.716" rx="24" fill="url(#paint1_linear_1413_675)"/>
<path d="M101.573 85C101.573 82.7909 103.364 81 105.573 81H222.031C224.24 81 226.031 82.7909 226.031 85C226.031 87.2091 224.24 89 222.031 89H105.573C103.364 89 101.573 87.2091 101.573 85Z" fill="#FF4040"/>
<path d="M101.573 111C101.573 108.791 103.364 107 105.573 107H222.031C224.24 107 226.031 108.791 226.031 111C226.031 113.209 224.24 115 222.031 115H105.573C103.364 115 101.573 113.209 101.573 111Z" fill="#D5D5D5"/>
<path d="M101.573 137C101.573 134.791 103.364 133 105.573 133H222.031C224.24 133 226.031 134.791 226.031 137C226.031 139.209 224.24 141 222.031 141H105.573C103.364 141 101.573 139.209 101.573 137Z" fill="#D5D5D5"/>
<path d="M101.573 163C101.573 160.791 103.364 159 105.573 159H222.031C224.24 159 226.031 160.791 226.031 163C226.031 165.209 224.24 167 222.031 167H105.573C103.364 167 101.573 165.209 101.573 163Z" fill="#D5D5D5"/>
<path fill-rule="evenodd" clip-rule="evenodd" d="M57 109.233V234.5C57 245.546 65.9543 254.5 77 254.5H198.065C217.525 254.5 225.524 229.528 209.685 218.222L57 109.233Z" fill="url(#paint2_linear_1413_675)"/>
<path fill-rule="evenodd" clip-rule="evenodd" d="M273.591 109.233V234.5C273.591 245.546 264.637 254.5 253.591 254.5H75.6862L273.591 109.233Z" fill="#E1DCEB"/>
<path fill-rule="evenodd" clip-rule="evenodd" d="M274 111.116L83.1537 254.5H75.1885L271.653 107.884L274 111.116Z" fill="#011625"/>
<path d="M15.289 199.055L15.2888 199.055C14.5039 198.548 14.2743 197.496 14.7804 196.707C15.2828 195.915 16.3339 195.685 17.1208 196.193C22.4245 199.618 25.8971 204.365 27.6538 210.421C27.9172 211.322 27.3973 212.267 26.503 212.53L26.5023 212.53C25.6015 212.793 24.6592 212.274 24.4011 211.372C22.8769 206.117 19.8836 202.02 15.289 199.055Z" fill="#011625" stroke="#011625"/>
<path d="M41.4665 207.01C38.0521 210.235 36.4094 217.007 35.5546 224.315C34.3956 234.213 34.8195 245.117 35.0185 250.237C35.0483 251.003 35.073 251.639 35.0867 252.123L41.4665 207.01ZM41.4665 207.01L41.8098 207.373C41.8098 207.373 41.8098 207.373 41.8097 207.373L41.4665 207.01ZM81.4326 207.24C80.7642 206.051 79.9881 204.929 79.1279 203.882L72.2542 202.095M81.4326 207.24C81.4326 207.24 81.4325 207.24 81.4324 207.24L80.9967 207.485L81.4326 207.24ZM81.4326 207.24C81.7575 207.818 82.3542 209.083 82.4498 210.213M82.4498 210.213C82.558 211.444 82.1358 212.59 80.9616 213.19L80.9613 213.19C79.5818 213.894 78.4108 213.845 77.4782 213.378M82.4498 210.213L81.9518 210.256L82.45 210.214C82.4499 210.214 82.4499 210.213 82.4498 210.213ZM77.4782 213.378C76.5887 212.934 75.9361 212.083 75.5383 211.022L75.5382 211.022C75.159 210.009 75.0067 208.76 74.9908 207.576C74.9764 206.506 75.0729 205.457 75.2334 204.63M77.4782 213.378L77.7017 212.931L77.4777 213.378C77.4779 213.378 77.478 213.378 77.4782 213.378ZM75.2334 204.63C74.3167 203.701 73.3186 202.854 72.2542 202.095M75.2334 204.63C75.2951 204.692 75.3563 204.755 75.4172 204.818L75.7773 204.471L75.2895 204.362C75.27 204.448 75.2513 204.537 75.2334 204.63ZM72.2542 202.095L72.5444 201.688L72.2542 202.095C72.2542 202.095 72.2542 202.095 72.2542 202.095ZM31.7783 251.538L32.2597 251.403L31.7788 251.54C31.7787 251.54 31.7785 251.539 31.7783 251.538ZM101.93 193.355C101.93 193.355 101.93 193.355 101.93 193.355C101.93 193.355 101.93 193.355 101.93 193.355L101.722 193.81L101.93 193.355ZM76.4233 201.754C76.5069 201.604 76.5919 201.456 76.6785 201.309C76.8046 201.424 76.9296 201.541 77.0534 201.658C76.9671 201.806 76.8823 201.956 76.7992 202.107C76.6751 201.988 76.5498 201.87 76.4233 201.754ZM31.9204 243.147C31.9132 242.703 31.9072 242.25 31.9026 241.789C32.0781 242.206 32.2503 242.625 32.4188 243.046C32.4266 243.541 32.4358 244.024 32.446 244.493C32.275 244.042 32.0997 243.593 31.9204 243.147ZM0.925224 196.856C0.925522 196.856 0.925819 196.855 0.926117 196.855C0.926414 196.855 0.92672 196.854 0.927017 196.854L1.30121 197.185L0.925224 196.856ZM35.438 253.89C35.4377 253.891 35.4374 253.892 35.437 253.893C35.4363 253.894 35.4356 253.896 35.4348 253.898L34.9768 253.697L35.438 253.89ZM78.9822 210.329C78.9892 210.329 79.0015 210.328 79.0209 210.324C79.0288 210.322 79.0372 210.32 79.0461 210.318C79.0446 210.307 79.043 210.298 79.0414 210.289C78.9281 209.77 78.6532 209.217 78.4837 208.914C78.4763 208.901 78.469 208.888 78.4616 208.875C78.521 209.218 78.6026 209.54 78.7092 209.823L78.7094 209.824C78.7737 209.995 78.8256 210.119 78.8816 210.211C78.9286 210.289 78.9629 210.318 78.9822 210.329ZM78.9751 210.329C78.9751 210.329 78.9758 210.329 78.9774 210.329L78.9751 210.329Z" fill="#011625" stroke="#011625"/>
<path fill-rule="evenodd" clip-rule="evenodd" d="M264.475 62.9435C265.687 58.0331 265.607 53.3044 265.753 48.3237C265.781 47.351 265.014 46.5423 264.042 46.513C263.068 46.4837 262.256 47.2513 262.227 48.224C262.09 52.9469 262.201 57.4413 261.051 62.1056C260.819 63.049 261.398 64.0041 262.343 64.2326C263.287 64.467 264.243 63.887 264.475 62.9435Z" fill="#011625"/>
<path fill-rule="evenodd" clip-rule="evenodd" d="M274.766 72.4598C282.983 64.9711 290.726 55.3378 296.137 45.6107C296.609 44.7611 296.302 43.6887 295.451 43.2199C294.6 42.7512 293.526 43.0559 293.054 43.9056C287.821 53.3104 280.333 62.6273 272.387 69.864C271.669 70.5203 271.619 71.6336 272.275 72.3485C272.932 73.0634 274.048 73.1161 274.766 72.4598Z" fill="#011625"/>
<path fill-rule="evenodd" clip-rule="evenodd" d="M276.848 80.6399C284.363 81.8763 292.11 79.7668 298.943 76.7842C299.835 76.3916 300.242 75.3545 299.852 74.4697C299.462 73.579 298.421 73.1747 297.529 73.5614C291.306 76.2803 284.267 78.2961 277.422 77.171C276.462 77.0128 275.554 77.6632 275.395 78.6183C275.237 79.5734 275.888 80.4817 276.848 80.6399Z" fill="#011625"/>
<path fill-rule="evenodd" clip-rule="evenodd" d="M59.7749 45.6152C60.8456 45.2336 61.9724 44.7265 62.8413 43.9924C63.8733 43.1204 64.293 41.9973 64.5749 40.8152C64.9367 39.2964 65.0813 37.6785 65.5201 36.1573C65.6826 35.5924 65.9952 35.3788 66.1294 35.2841C66.4684 35.0447 66.8112 34.9807 67.1336 35.0047C67.5158 35.0324 68.0407 35.177 68.386 35.8176C68.4352 35.9093 68.4992 36.049 68.5423 36.2404C68.5736 36.3807 68.5939 36.8195 68.6272 37.0004C68.7103 37.4459 68.7798 37.8915 68.845 38.3395C69.0623 39.8306 69.1872 41.097 69.8733 42.4668C70.8044 44.3265 71.7374 45.4644 73.0026 45.9684C74.226 46.4558 75.6887 46.3641 77.5577 45.9819C77.7355 45.9389 77.9115 45.9019 78.0856 45.8718C78.9096 45.7278 79.6973 46.2687 79.8592 47.0896C80.021 47.9099 79.4974 48.7093 78.6807 48.8896C78.5103 48.9272 78.3423 48.9629 78.1761 48.9955C75.6506 49.6207 72.7269 51.8521 71.0278 53.8059C70.5041 54.4084 69.7373 56.0927 68.9552 57.1672C68.378 57.9598 67.7293 58.4822 67.1847 58.6669C66.8198 58.7912 66.5121 58.7721 66.258 58.7093C65.8887 58.6183 65.5823 58.4182 65.3472 58.1001C65.2192 57.9259 65.1004 57.6927 65.0438 57.3948C65.0167 57.2515 65.0137 56.8872 65.0143 56.7223C64.8549 56.174 64.6598 55.6385 64.5177 55.0853C64.1786 53.7653 63.5133 52.9296 62.7232 51.8256C61.9841 50.7924 61.1903 50.1432 60.0266 49.625C59.8752 49.5881 58.6537 49.289 58.2223 49.1173C57.5921 48.8656 57.2918 48.4441 57.1829 48.217C56.9976 47.8318 56.9786 47.4952 57.0155 47.2146C57.0703 46.8004 57.2561 46.4459 57.586 46.1598C57.7903 45.9819 58.0955 45.809 58.5041 45.7247C58.8198 45.6589 59.6573 45.6207 59.7749 45.6152ZM66.941 43.4638C66.9976 43.5899 67.058 43.7167 67.122 43.8447C68.4856 46.5684 70.0106 48.089 71.8641 48.8269L71.9263 48.8509C70.6863 49.7715 69.5638 50.8004 68.7059 51.7869C68.3527 52.193 67.885 53.0367 67.3798 53.9019C66.9207 52.4096 66.17 51.3549 65.226 50.0349C64.5047 49.0275 63.749 48.2693 62.8204 47.6515C63.541 47.2816 64.2284 46.8484 64.8272 46.3426C65.8241 45.5001 66.4832 44.5241 66.941 43.4638Z" fill="#417BA4"/>
<defs>
<linearGradient id="paint0_linear_1413_675" x1="162.563" y1="-5.56338" x2="165.052" y2="421.126" gradientUnits="userSpaceOnUse">
<stop stop-color="#F2F2F2"/>
<stop offset="1" stop-color="#EFEFEF"/>
</linearGradient>
<linearGradient id="paint1_linear_1413_675" x1="165.659" y1="55.9443" x2="165.659" y2="248.66" gradientUnits="userSpaceOnUse">
<stop stop-color="white"/>
<stop offset="0.71875" stop-color="#EAEAEA"/>
</linearGradient>
<linearGradient id="paint2_linear_1413_675" x1="57" y1="109" x2="206" y2="276" gradientUnits="userSpaceOnUse">
<stop stop-color="#E1DCEB"/>
<stop offset="1" stop-color="#B3AFBA"/>
</linearGradient>
</defs>
</svg>
