<svg width="20" height="20" viewBox="0 0 20 20" fill="none" xmlns="http://www.w3.org/2000/svg">
<g clip-path="url(#clip0_184_25)">
<g filter="url(#filter0_d_184_25)">
<path d="M17 4H5C4.44772 4 4 4.44772 4 5V17L7.23077 13.75H17C17.5523 13.75 18 13.3023 18 12.75V5C18 4.44772 17.5523 4 17 4Z" fill="#FFBDBD"/>
<path d="M17 4H5C4.44772 4 4 4.44772 4 5V17L7.23077 13.75H17C17.5523 13.75 18 13.3023 18 12.75V5C18 4.44772 17.5523 4 17 4Z" stroke="#FFBDBD"/>
</g>
<g filter="url(#filter1_d_184_25)">
<path d="M15 2C15.2652 2 15.5196 2.10536 15.7071 2.29289C15.8946 2.48043 16 2.73478 16 3V11C16 11.2652 15.8946 11.5196 15.7071 11.7071C15.5196 11.8946 15.2652 12 15 12H5.414C4.88361 12.0001 4.37499 12.2109 4 12.586L2 14.586V3C2 2.73478 2.10536 2.48043 2.29289 2.29289C2.48043 2.10536 2.73478 2 3 2H15ZM3 1C2.46957 1 1.96086 1.21071 1.58579 1.58579C1.21071 1.96086 1 2.46957 1 3L1 15.793C1.00002 15.8919 1.02939 15.9886 1.0844 16.0709C1.1394 16.1531 1.21757 16.2172 1.309 16.255C1.40043 16.2928 1.50102 16.3026 1.59804 16.2832C1.69505 16.2638 1.78413 16.216 1.854 16.146L4.707 13.293C4.89449 13.1055 5.14881 13.0001 5.414 13H15C15.5304 13 16.0391 12.7893 16.4142 12.4142C16.7893 12.0391 17 11.5304 17 11V3C17 2.46957 16.7893 1.96086 16.4142 1.58579C16.0391 1.21071 15.5304 1 15 1H3Z" fill="#DC8183"/>
</g>
</g>
<defs>
<filter id="filter0_d_184_25" x="2.5" y="2.5" width="17" height="16.7119" filterUnits="userSpaceOnUse" color-interpolation-filters="sRGB">
<feFlood flood-opacity="0" result="BackgroundImageFix"/>
<feColorMatrix in="SourceAlpha" type="matrix" values="0 0 0 0 0 0 0 0 0 0 0 0 0 0 0 0 0 0 127 0" result="hardAlpha"/>
<feOffset/>
<feGaussianBlur stdDeviation="0.5"/>
<feComposite in2="hardAlpha" operator="out"/>
<feColorMatrix type="matrix" values="0 0 0 0 0.827451 0 0 0 0 0.478431 0 0 0 0 0.478431 0 0 0 1 0"/>
<feBlend mode="normal" in2="BackgroundImageFix" result="effect1_dropShadow_184_25"/>
<feBlend mode="normal" in="SourceGraphic" in2="effect1_dropShadow_184_25" result="shape"/>
</filter>
<filter id="filter1_d_184_25" x="0" y="0" width="18" height="17.293" filterUnits="userSpaceOnUse" color-interpolation-filters="sRGB">
<feFlood flood-opacity="0" result="BackgroundImageFix"/>
<feColorMatrix in="SourceAlpha" type="matrix" values="0 0 0 0 0 0 0 0 0 0 0 0 0 0 0 0 0 0 127 0" result="hardAlpha"/>
<feOffset/>
<feGaussianBlur stdDeviation="0.5"/>
<feComposite in2="hardAlpha" operator="out"/>
<feColorMatrix type="matrix" values="0 0 0 0 0.862745 0 0 0 0 0.505882 0 0 0 0 0.513726 0 0 0 0.5 0"/>
<feBlend mode="normal" in2="BackgroundImageFix" result="effect1_dropShadow_184_25"/>
<feBlend mode="normal" in="SourceGraphic" in2="effect1_dropShadow_184_25" result="shape"/>
</filter>
<clipPath id="clip0_184_25">
<rect width="20" height="20" fill="white"/>
</clipPath>
</defs>
</svg>
