<svg width="36" height="37" viewBox="0 0 36 37" fill="none" xmlns="http://www.w3.org/2000/svg">
<g clip-path="url(#clip0_184_30)">
<g filter="url(#filter0_d_184_30)">
<circle cx="20" cy="22" r="14" fill="#C9EDFE"/>
</g>
<g filter="url(#filter1_d_184_30)">
<path d="M18 2.25C9.30234 2.25 2.25 9.30234 2.25 18C2.25 26.6977 9.30234 33.75 18 33.75C26.6977 33.75 33.75 26.6977 33.75 18C33.75 9.30234 26.6977 2.25 18 2.25ZM18 31.0781C10.7789 31.0781 4.92188 25.2211 4.92188 18C4.92188 10.7789 10.7789 4.92188 18 4.92188C25.2211 4.92188 31.0781 10.7789 31.0781 18C31.0781 25.2211 25.2211 31.0781 18 31.0781ZM19.677 17.1844L18.784 16.977V12.2555C20.1199 12.4383 20.9461 13.275 21.0867 14.3016C21.1043 14.4422 21.2238 14.5441 21.3645 14.5441H22.943C23.1082 14.5441 23.2383 14.4 23.2242 14.2348C23.0098 12.0445 21.2063 10.6383 18.798 10.3957V9.24609C18.798 9.09141 18.6715 8.96484 18.5168 8.96484H17.5289C17.3742 8.96484 17.2477 9.09141 17.2477 9.24609V10.4062C14.7586 10.6488 12.8109 12.0234 12.8109 14.5898C12.8109 16.9664 14.5617 18.1125 16.4004 18.552L17.2688 18.7734V23.7902C15.7148 23.5828 14.843 22.7531 14.6637 21.6352C14.6426 21.5016 14.523 21.4031 14.3859 21.4031H12.7617C12.5965 21.4031 12.4664 21.5438 12.4805 21.709C12.6387 23.6426 14.1047 25.4215 17.2336 25.65V26.7539C17.2336 26.9086 17.3602 27.0352 17.5148 27.0352H18.5133C18.668 27.0352 18.7945 26.9086 18.7945 26.7504L18.7875 25.6359C21.5402 25.3934 23.509 23.9203 23.509 21.2766C23.5055 18.8367 21.9551 17.7469 19.677 17.1844V17.1844ZM17.2652 16.6148C17.0684 16.5586 16.9031 16.5059 16.7379 16.4391C15.5496 16.0102 14.9977 15.3176 14.9977 14.4246C14.9977 13.1484 15.9645 12.4207 17.2652 12.2555V16.6148ZM18.784 23.8008V19.1004C18.893 19.132 18.9914 19.1566 19.0934 19.1777C20.7562 19.684 21.3152 20.3871 21.3152 21.4664C21.3152 22.841 20.2816 23.6672 18.784 23.8008Z" fill="#288CCA"/>
</g>
</g>
<defs>
<filter id="filter0_d_184_30" x="5" y="7" width="30" height="30" filterUnits="userSpaceOnUse" color-interpolation-filters="sRGB">
<feFlood flood-opacity="0" result="BackgroundImageFix"/>
<feColorMatrix in="SourceAlpha" type="matrix" values="0 0 0 0 0 0 0 0 0 0 0 0 0 0 0 0 0 0 127 0" result="hardAlpha"/>
<feOffset/>
<feGaussianBlur stdDeviation="0.5"/>
<feComposite in2="hardAlpha" operator="out"/>
<feColorMatrix type="matrix" values="0 0 0 0 0.447792 0 0 0 0 0.705509 0 0 0 0 0.827208 0 0 0 1 0"/>
<feBlend mode="normal" in2="BackgroundImageFix" result="effect1_dropShadow_184_30"/>
<feBlend mode="normal" in="SourceGraphic" in2="effect1_dropShadow_184_30" result="shape"/>
</filter>
<filter id="filter1_d_184_30" x="0.25" y="0.25" width="35.5" height="35.5" filterUnits="userSpaceOnUse" color-interpolation-filters="sRGB">
<feFlood flood-opacity="0" result="BackgroundImageFix"/>
<feColorMatrix in="SourceAlpha" type="matrix" values="0 0 0 0 0 0 0 0 0 0 0 0 0 0 0 0 0 0 127 0" result="hardAlpha"/>
<feOffset/>
<feGaussianBlur stdDeviation="1"/>
<feComposite in2="hardAlpha" operator="out"/>
<feColorMatrix type="matrix" values="0 0 0 0 0.156863 0 0 0 0 0.54902 0 0 0 0 0.792157 0 0 0 0.5 0"/>
<feBlend mode="normal" in2="BackgroundImageFix" result="effect1_dropShadow_184_30"/>
<feBlend mode="normal" in="SourceGraphic" in2="effect1_dropShadow_184_30" result="shape"/>
</filter>
<clipPath id="clip0_184_30">
<rect width="36" height="37" fill="white"/>
</clipPath>
</defs>
</svg>
