<svg width="18" height="15" viewBox="0 0 18 15" fill="none" xmlns="http://www.w3.org/2000/svg">
<g clip-path="url(#clip0_185_33)">
<path d="M3.44192 8.27048L3 9L3.57309 9.8278C4.94007 11.8023 6.97197 13.219 9.29739 13.8188L10 14L10.5131 13.8824C13.2707 13.2501 15.6293 11.4749 17 9L16.9734 8.94515C15.6488 6.21171 13.0177 4.34595 10 4C7.27791 4.35106 4.86397 5.92297 3.44192 8.27048Z" fill="#FDEAB2" stroke="#FDEAB2"/>
<g filter="url(#filter0_d_185_33)">
<path d="M17 7C17 7 14 1.5 9 1.5C4 1.5 1 7 1 7C1 7 4 12.5 9 12.5C14 12.5 17 7 17 7ZM2.173 7C2.65651 6.26512 3.21264 5.58069 3.833 4.957C5.12 3.668 6.88 2.5 9 2.5C11.12 2.5 12.879 3.668 14.168 4.957C14.7884 5.58069 15.3445 6.26512 15.828 7C15.77 7.087 15.706 7.183 15.633 7.288C15.298 7.768 14.803 8.408 14.168 9.043C12.879 10.332 11.119 11.5 9 11.5C6.88 11.5 5.121 10.332 3.832 9.043C3.21165 8.41931 2.65552 7.73487 2.172 7H2.173Z" fill="#E8CC6E"/>
</g>
<g filter="url(#filter1_d_185_33)">
<path d="M9 4.5C8.33696 4.5 7.70107 4.76339 7.23223 5.23223C6.76339 5.70107 6.5 6.33696 6.5 7C6.5 7.66304 6.76339 8.29893 7.23223 8.76777C7.70107 9.23661 8.33696 9.5 9 9.5C9.66304 9.5 10.2989 9.23661 10.7678 8.76777C11.2366 8.29893 11.5 7.66304 11.5 7C11.5 6.33696 11.2366 5.70107 10.7678 5.23223C10.2989 4.76339 9.66304 4.5 9 4.5ZM5.5 7C5.5 6.07174 5.86875 5.1815 6.52513 4.52513C7.1815 3.86875 8.07174 3.5 9 3.5C9.92826 3.5 10.8185 3.86875 11.4749 4.52513C12.1313 5.1815 12.5 6.07174 12.5 7C12.5 7.92826 12.1313 8.8185 11.4749 9.47487C10.8185 10.1313 9.92826 10.5 9 10.5C8.07174 10.5 7.1815 10.1313 6.52513 9.47487C5.86875 8.8185 5.5 7.92826 5.5 7Z" fill="#E8CC6E"/>
</g>
</g>
<defs>
<filter id="filter0_d_185_33" x="0" y="0.5" width="18" height="13" filterUnits="userSpaceOnUse" color-interpolation-filters="sRGB">
<feFlood flood-opacity="0" result="BackgroundImageFix"/>
<feColorMatrix in="SourceAlpha" type="matrix" values="0 0 0 0 0 0 0 0 0 0 0 0 0 0 0 0 0 0 127 0" result="hardAlpha"/>
<feOffset/>
<feGaussianBlur stdDeviation="0.5"/>
<feComposite in2="hardAlpha" operator="out"/>
<feColorMatrix type="matrix" values="0 0 0 0 0.909804 0 0 0 0 0.8 0 0 0 0 0.431373 0 0 0 0.5 0"/>
<feBlend mode="normal" in2="BackgroundImageFix" result="effect1_dropShadow_185_33"/>
<feBlend mode="normal" in="SourceGraphic" in2="effect1_dropShadow_185_33" result="shape"/>
</filter>
<filter id="filter1_d_185_33" x="4.5" y="2.5" width="9" height="9" filterUnits="userSpaceOnUse" color-interpolation-filters="sRGB">
<feFlood flood-opacity="0" result="BackgroundImageFix"/>
<feColorMatrix in="SourceAlpha" type="matrix" values="0 0 0 0 0 0 0 0 0 0 0 0 0 0 0 0 0 0 127 0" result="hardAlpha"/>
<feOffset/>
<feGaussianBlur stdDeviation="0.5"/>
<feComposite in2="hardAlpha" operator="out"/>
<feColorMatrix type="matrix" values="0 0 0 0 0.909804 0 0 0 0 0.8 0 0 0 0 0.431373 0 0 0 0.5 0"/>
<feBlend mode="normal" in2="BackgroundImageFix" result="effect1_dropShadow_185_33"/>
<feBlend mode="normal" in="SourceGraphic" in2="effect1_dropShadow_185_33" result="shape"/>
</filter>
<clipPath id="clip0_185_33">
<rect width="18" height="15" fill="white"/>
</clipPath>
</defs>
</svg>
