<svg width="44" height="44" viewBox="0 0 44 44" fill="none" xmlns="http://www.w3.org/2000/svg">
<g filter="url(#filter0_d_190_13)">
<circle cx="22" cy="22" r="20" fill="#16D478"/>
</g>
<path d="M35 27.5L34.5134 28.9598C33.8543 30.9371 32.5939 32.659 30.9083 33.8849L29.9724 34.5656C28.6764 35.508 27.173 36.1253 25.5887 36.3653L23.1974 36.7277C22.402 36.8482 21.5951 36.8723 20.7939 36.7994L20.0288 36.7299C18.3693 36.579 16.7737 36.0158 15.3872 35.0915L14.0192 34.1795C12.3766 33.0844 11.0948 31.5275 10.3355 29.7051L9 26.5" stroke="url(#paint0_linear_190_13)" stroke-linecap="round"/>
<path d="M9 16.4092L9.4866 14.9494C10.1457 12.9721 11.4061 11.2502 13.0917 10.0243L14.0276 9.34363C15.3236 8.40114 16.827 7.78388 18.4113 7.54383L20.8026 7.18151C21.598 7.061 22.4049 7.0369 23.2061 7.10973L23.9712 7.17928C25.6307 7.33015 27.2263 7.89336 28.6128 8.81771L29.9808 9.72968C31.6234 10.8248 32.9052 12.3816 33.6645 14.204L35 17.4092" stroke="url(#paint1_linear_190_13)" stroke-linecap="round"/>
<path d="M35.1307 20.2832L32.4949 16.8478L36.788 16.2828L35.1307 20.2832Z" fill="white"/>
<path d="M8.42674 23.6004L11.4295 26.7202L7.22631 27.7608L8.42674 23.6004Z" fill="white"/>
<defs>
<filter id="filter0_d_190_13" x="0" y="0" width="44" height="44" filterUnits="userSpaceOnUse" color-interpolation-filters="sRGB">
<feFlood flood-opacity="0" result="BackgroundImageFix"/>
<feColorMatrix in="SourceAlpha" type="matrix" values="0 0 0 0 0 0 0 0 0 0 0 0 0 0 0 0 0 0 127 0" result="hardAlpha"/>
<feOffset/>
<feGaussianBlur stdDeviation="1"/>
<feComposite in2="hardAlpha" operator="out"/>
<feColorMatrix type="matrix" values="0 0 0 0 0.075 0 0 0 0 1 0 0 0 0 0.552105 0 0 0 1 0"/>
<feBlend mode="normal" in2="BackgroundImageFix" result="effect1_dropShadow_190_13"/>
<feBlend mode="normal" in="SourceGraphic" in2="effect1_dropShadow_190_13" result="shape"/>
</filter>
<linearGradient id="paint0_linear_190_13" x1="35" y1="28" x2="9.50046" y2="28.1085" gradientUnits="userSpaceOnUse">
<stop stop-color="white" stop-opacity="0.2"/>
<stop offset="0.369967" stop-color="white" stop-opacity="0.8"/>
<stop offset="0.651916" stop-color="white"/>
<stop offset="1" stop-color="white"/>
</linearGradient>
<linearGradient id="paint1_linear_190_13" x1="9" y1="15.9092" x2="34.4995" y2="15.8007" gradientUnits="userSpaceOnUse">
<stop stop-color="white" stop-opacity="0.2"/>
<stop offset="0.369967" stop-color="white" stop-opacity="0.8"/>
<stop offset="0.651916" stop-color="white"/>
<stop offset="1" stop-color="white"/>
</linearGradient>
</defs>
</svg>
