<svg width="26" height="26" viewBox="0 0 26 26" fill="#FEBD05" xmlns="http://www.w3.org/2000/svg">
<rect x="1" y="1" width="24" height="24" rx="12" />
<g filter="url(#filter0_di_175_18)">
<path d="M16.7111 9.81C16.9538 10.3047 17.0751 10.8553 17.0751 11.462C17.0751 12.0687 16.9538 12.6193 16.7111 13.114C16.4685 13.5993 16.1558 13.9867 15.7731 14.276C14.9985 14.8733 14.1958 15.172 13.3651 15.172H11.6151V16.754C11.6151 16.9687 11.6058 17.132 11.5871 17.244C11.5778 17.3467 11.5358 17.468 11.4611 17.608C11.3305 17.86 10.9665 17.986 10.3691 17.986C9.71582 17.986 9.33315 17.8133 9.22115 17.468C9.16515 17.3093 9.13715 17.0667 9.13715 16.74V8.97C9.13715 8.75533 9.14182 8.59667 9.15115 8.494C9.16982 8.382 9.21648 8.256 9.29115 8.116C9.42182 7.864 9.78582 7.738 10.3831 7.738H13.3791C14.2005 7.738 14.9985 8.03667 15.7731 8.634C16.1558 8.92333 16.4685 9.31533 16.7111 9.81ZM13.3791 12.694C13.6591 12.694 13.9345 12.5913 14.2051 12.386C14.4758 12.1807 14.6111 11.8727 14.6111 11.462C14.6111 11.0513 14.4758 10.7433 14.2051 10.538C13.9345 10.3233 13.6545 10.216 13.3651 10.216H11.6151V12.694H13.3791Z" fill="white"/>
</g>
<defs>
<filter id="filter0_di_175_18" x="9.13672" y="6.73779" width="7.93848" height="11.248" filterUnits="userSpaceOnUse" color-interpolation-filters="sRGB">
<feFlood flood-opacity="0" result="BackgroundImageFix"/>
<feColorMatrix in="SourceAlpha" type="matrix" values="0 0 0 0 0 0 0 0 0 0 0 0 0 0 0 0 0 0 127 0" result="hardAlpha"/>
<feOffset dy="-1"/>
<feComposite in2="hardAlpha" operator="out"/>
<feColorMatrix type="matrix" values="0 0 0 0 0 0 0 0 0 0 0 0 0 0 0 0 0 0 0.35 0"/>
<feBlend mode="normal" in2="BackgroundImageFix" result="effect1_dropShadow_175_18"/>
<feBlend mode="normal" in="SourceGraphic" in2="effect1_dropShadow_175_18" result="shape"/>
<feColorMatrix in="SourceAlpha" type="matrix" values="0 0 0 0 0 0 0 0 0 0 0 0 0 0 0 0 0 0 127 0" result="hardAlpha"/>
<feOffset dy="-1"/>
<feComposite in2="hardAlpha" operator="arithmetic" k2="-1" k3="1"/>
<feColorMatrix type="matrix" values="0 0 0 0 0.996078 0 0 0 0 0.741176 0 0 0 0 0.0196078 0 0 0 0.3 0"/>
<feBlend mode="normal" in2="shape" result="effect2_innerShadow_175_18"/>
</filter>
</defs>
</svg>
