<svg width="44" height="45" viewBox="0 0 44 45" fill="none" xmlns="http://www.w3.org/2000/svg">
<ellipse cx="22.3745" cy="23.3534" rx="21.2495" ry="19.4823" fill="#F4F3FA"/>
<ellipse cx="2.19136" cy="5.81933" rx="2.12495" ry="1.94823" fill="#EFF18D"/>
<ellipse cx="19.7207" cy="1.46117" rx="1.59371" ry="1.46117" fill="#BACBBD"/>
<path d="M31.4043 3.87109L32.7845 4.60168V6.06285L31.4043 6.79344L30.0241 6.06285V4.60168L31.4043 3.87109Z" fill="#BDA5C8"/>
<path d="M12.2364 40.5705C12.4274 40.0313 13.2013 40.0313 13.3924 40.5705V40.5705C13.4741 40.8009 13.6934 40.9587 13.9379 40.9587H14.0241C14.5696 40.9587 14.7836 41.6663 14.3297 41.9687V41.9687C14.1195 42.1086 14.0322 42.3757 14.1165 42.6137V42.6137C14.2984 43.1269 13.7251 43.5847 13.2721 43.2829L13.1544 43.2045C12.9485 43.0674 12.6803 43.0674 12.4744 43.2045L12.3567 43.2829C11.9036 43.5847 11.3304 43.1269 11.5122 42.6137V42.6137C11.5966 42.3757 11.5092 42.1086 11.2991 41.9687V41.9687C10.8451 41.6663 11.0592 40.9587 11.6046 40.9587H11.6909C11.9354 40.9587 12.1547 40.8009 12.2364 40.5705V40.5705Z" fill="#9776B8"/>
<rect width="3.03213" height="3.08317" transform="matrix(0.667865 0.744282 -0.798355 0.602187 39.709 40.8867)" fill="#F0D2D2"/>
<path d="M24.4999 38.9395L24.8106 40.2002L26.0025 39.5101L25.2498 40.6029L26.6249 40.8877L25.2498 41.1725L26.0025 42.2653L24.8106 41.5752L24.4999 42.8359L24.1893 41.5752L22.9974 42.2653L23.7501 41.1725L22.375 40.8877L23.7501 40.6029L22.9974 39.5101L24.1893 40.2002L24.4999 38.9395Z" fill="#F5CCAD"/>
<path d="M21.0526 32.1967V35.7655H38.4502L37.4031 34.7202C37.2152 34.5326 37.1096 34.278 37.1096 34.0125V30.0202C37.1096 29.7054 37.2578 29.4091 37.5096 29.2202L38.894 28.1819H21.0526V32.1967Z" fill="#4AC4EC"/>
<path d="M21.0526 15.3531C21.0526 14.8008 20.6049 14.3531 20.0526 14.3531H14.8074V17.9218H21.0526V15.3531Z" fill="#59A994"/>
<path d="M14.8074 35.7655H21.0526V32.1967H14.8074V35.7655Z" fill="#59A994"/>
<path d="M6.77771 13.4609H14.8074V10C14.8074 9.44772 14.3596 9 13.8074 9H7.77771C7.22542 9 6.77771 9.44772 6.77771 10V13.4609Z" fill="#BB536E"/>
<path d="M14.8074 35.7655V32.1967V31.3046H6.77771V32.1967V35.7655H14.8074Z" fill="#BB536E"/>
<path d="M14.8074 14.3531V13.8531H14.3074V14.3531H14.8074ZM38.894 28.1819L39.194 28.5819L40.394 27.6819H38.894V28.1819ZM6 36.2116L5.75122 35.7779L4.1234 36.7116H6V36.2116ZM39.08 36.2116V36.7116H40.651L39.369 35.8036L39.08 36.2116ZM37.4031 34.7202L37.7564 34.3663L37.4031 34.7202ZM20.0526 13.8531H14.8074V14.8531H20.0526V13.8531ZM14.8074 36.2655H21.0526V35.2655H14.8074V36.2655ZM14.3074 32.1967V35.7655H15.3074V32.1967H14.3074ZM20.5526 32.1967V35.7655H21.5526V32.1967H20.5526ZM14.8074 32.6967H21.0526V31.6967H14.8074V32.6967ZM14.3074 14.3531V17.9218H15.3074V14.3531H14.3074ZM20.5526 15.3531V17.9218H21.5526V15.3531H20.5526ZM14.8074 18.4218H21.0526V17.4218H14.8074V18.4218ZM14.8074 35.2655H6.77771V36.2655H14.8074V35.2655ZM6.77771 13.9609H14.8074V12.9609H6.77771V13.9609ZM7.27771 35.7655V32.1967H6.27771V35.7655H7.27771ZM15.3074 13.4609V10H14.3074V13.4609H15.3074ZM13.8074 8.5H7.77771V9.5H13.8074V8.5ZM6.27771 10V13.4609H7.27771V10H6.27771ZM6.27771 13.4609V19.2601H7.27771V13.4609H6.27771ZM21.0526 36.2655H38.4502V35.2655H21.0526V36.2655ZM38.8035 35.4116L37.7564 34.3663L37.0499 35.0741L38.0969 36.1193L38.8035 35.4116ZM37.6096 34.0125V30.0202H36.6096V34.0125H37.6096ZM37.8096 29.6202L39.194 28.5819L38.594 27.7819L37.2096 28.8202L37.8096 29.6202ZM20.5526 17.9218V28.1819H21.5526V17.9218H20.5526ZM20.5526 28.1819V32.1967H21.5526V28.1819H20.5526ZM38.894 27.6819H21.0526V28.6819H38.894V27.6819ZM14.3074 13.4609V31.3046H15.3074V13.4609H14.3074ZM14.3074 31.3046V32.1967H15.3074V31.3046H14.3074ZM14.3074 17.9218V31.3046H15.3074V17.9218H14.3074ZM7.27771 32.1967V31.3046H6.27771V32.1967H7.27771ZM7.27771 31.3046V25.9515H6.27771V31.3046H7.27771ZM14.8074 30.8046H6.77771V31.8046H14.8074V30.8046ZM6.52893 35.3318L5.75122 35.7779L6.24878 36.6453L7.02649 36.1992L6.52893 35.3318ZM6 36.7116H39.08V35.7116H6V36.7116ZM39.369 35.8036L38.7392 35.3575L38.1612 36.1735L38.791 36.6196L39.369 35.8036ZM37.6096 30.0202C37.6096 29.8628 37.6837 29.7146 37.8096 29.6202L37.2096 28.8202C36.8319 29.1035 36.6096 29.5481 36.6096 30.0202H37.6096ZM7.77771 8.5C6.94928 8.5 6.27771 9.17157 6.27771 10H7.27771C7.27771 9.72386 7.50157 9.5 7.77771 9.5V8.5ZM37.7564 34.3663C37.6624 34.2726 37.6096 34.1452 37.6096 34.0125H36.6096C36.6096 34.4108 36.768 34.7927 37.0499 35.0741L37.7564 34.3663ZM15.3074 10C15.3074 9.17157 14.6358 8.5 13.8074 8.5V9.5C14.0835 9.5 14.3074 9.72386 14.3074 10H15.3074ZM20.0526 14.8531C20.3288 14.8531 20.5526 15.077 20.5526 15.3531H21.5526C21.5526 14.5247 20.8811 13.8531 20.0526 13.8531V14.8531Z" fill="black"/>
<path d="M10.6973 18.6367V25.8013" stroke="#A2314E" stroke-linecap="round"/>
<path d="M17.7676 23.2334V26.4284" stroke="#58C7A9" stroke-linecap="round"/>
<path d="M29 32L34.2726 32.0938" stroke="#82FFFF" stroke-width="2" stroke-linecap="round"/>
<path d="M6.69727 21.8877V22.6516" stroke="black" stroke-linecap="round"/>
</svg>
