<svg width="244" height="85" viewBox="0 0 244 85" fill="none" xmlns="http://www.w3.org/2000/svg">
<path d="M33.32 13.37L26.316 37H21.93L16.966 19.116L11.696 37L7.344 37.034L0.646 13.37H4.76L9.656 32.614L14.96 13.37H19.312L24.242 32.512L29.172 13.37H33.32ZM52.4968 27.174C52.4968 27.8767 52.4515 28.5113 52.3608 29.078H38.0468C38.1601 30.574 38.7155 31.7753 39.7128 32.682C40.7101 33.5887 41.9341 34.042 43.3848 34.042C45.4701 34.042 46.9435 33.1693 47.8048 31.424H51.9868C51.4201 33.1467 50.3888 34.5633 48.8928 35.674C47.4195 36.762 45.5835 37.306 43.3848 37.306C41.5941 37.306 39.9848 36.9093 38.5568 36.116C37.1515 35.3 36.0408 34.1667 35.2248 32.716C34.4315 31.2427 34.0348 29.5427 34.0348 27.616C34.0348 25.6893 34.4201 24.0007 35.1908 22.55C35.9841 21.0767 37.0835 19.9433 38.4888 19.15C39.9168 18.3567 41.5488 17.96 43.3848 17.96C45.1528 17.96 46.7281 18.3453 48.1108 19.116C49.4935 19.8867 50.5701 20.9747 51.3408 22.38C52.1115 23.7627 52.4968 25.3607 52.4968 27.174ZM48.4508 25.95C48.4281 24.522 47.9181 23.3773 46.9208 22.516C45.9235 21.6547 44.6881 21.224 43.2148 21.224C41.8775 21.224 40.7328 21.6547 39.7808 22.516C38.8288 23.3547 38.2621 24.4993 38.0808 25.95H48.4508ZM58.9972 11.84V37H55.1212V11.84H58.9972ZM66.772 11.84V37H62.896V11.84H66.772ZM77.0209 27.548C77.0209 25.6667 77.4062 24.0007 78.1769 22.55C78.9702 21.0993 80.0356 19.9773 81.3729 19.184C82.7329 18.368 84.2402 17.96 85.8949 17.96C87.1189 17.96 88.3202 18.232 89.4989 18.776C90.7002 19.2973 91.6522 20 92.3549 20.884V11.84H96.2649V37H92.3549V34.178C91.7202 35.0847 90.8362 35.8327 89.7029 36.422C88.5922 37.0113 87.3116 37.306 85.8609 37.306C84.2289 37.306 82.7329 36.898 81.3729 36.082C80.0356 35.2433 78.9702 34.0873 78.1769 32.614C77.4062 31.118 77.0209 29.4293 77.0209 27.548ZM92.3549 27.616C92.3549 26.324 92.0829 25.202 91.5389 24.25C91.0176 23.298 90.3262 22.5727 89.4649 22.074C88.6036 21.5753 87.6742 21.326 86.6769 21.326C85.6796 21.326 84.7502 21.5753 83.8889 22.074C83.0276 22.55 82.3249 23.264 81.7809 24.216C81.2596 25.1453 80.9989 26.256 80.9989 27.548C80.9989 28.84 81.2596 29.9733 81.7809 30.948C82.3249 31.9227 83.0276 32.6707 83.8889 33.192C84.7729 33.6907 85.7022 33.94 86.6769 33.94C87.6742 33.94 88.6036 33.6907 89.4649 33.192C90.3262 32.6933 91.0176 31.968 91.5389 31.016C92.0829 30.0413 92.3549 28.908 92.3549 27.616ZM108.292 37.306C106.524 37.306 104.926 36.9093 103.498 36.116C102.07 35.3 100.948 34.1667 100.132 32.716C99.3159 31.2427 98.9079 29.5427 98.9079 27.616C98.9079 25.712 99.3272 24.0233 100.166 22.55C101.005 21.0767 102.149 19.9433 103.6 19.15C105.051 18.3567 106.671 17.96 108.462 17.96C110.253 17.96 111.873 18.3567 113.324 19.15C114.775 19.9433 115.919 21.0767 116.758 22.55C117.597 24.0233 118.016 25.712 118.016 27.616C118.016 29.52 117.585 31.2087 116.724 32.682C115.863 34.1553 114.684 35.3 113.188 36.116C111.715 36.9093 110.083 37.306 108.292 37.306ZM108.292 33.94C109.289 33.94 110.219 33.702 111.08 33.226C111.964 32.75 112.678 32.036 113.222 31.084C113.766 30.132 114.038 28.976 114.038 27.616C114.038 26.256 113.777 25.1113 113.256 24.182C112.735 23.23 112.043 22.516 111.182 22.04C110.321 21.564 109.391 21.326 108.394 21.326C107.397 21.326 106.467 21.564 105.606 22.04C104.767 22.516 104.099 23.23 103.6 24.182C103.101 25.1113 102.852 26.256 102.852 27.616C102.852 29.6333 103.362 31.1973 104.382 32.308C105.425 33.396 106.728 33.94 108.292 33.94ZM130.109 17.96C131.583 17.96 132.897 18.266 134.053 18.878C135.232 19.49 136.15 20.3967 136.807 21.598C137.465 22.7993 137.794 24.25 137.794 25.95V37H133.951V26.528C133.951 24.8507 133.532 23.57 132.693 22.686C131.855 21.7793 130.71 21.326 129.259 21.326C127.809 21.326 126.653 21.7793 125.791 22.686C124.953 23.57 124.533 24.8507 124.533 26.528V37H120.657V18.266H124.533V20.408C125.168 19.6373 125.973 19.0367 126.947 18.606C127.945 18.1753 128.999 17.96 130.109 17.96ZM158.718 27.174C158.718 27.8767 158.672 28.5113 158.582 29.078H144.268C144.381 30.574 144.936 31.7753 145.934 32.682C146.931 33.5887 148.155 34.042 149.606 34.042C151.691 34.042 153.164 33.1693 154.026 31.424H158.208C157.641 33.1467 156.61 34.5633 155.114 35.674C153.64 36.762 151.804 37.306 149.606 37.306C147.815 37.306 146.206 36.9093 144.778 36.116C143.372 35.3 142.262 34.1667 141.446 32.716C140.652 31.2427 140.256 29.5427 140.256 27.616C140.256 25.6893 140.641 24.0007 141.412 22.55C142.205 21.0767 143.304 19.9433 144.71 19.15C146.138 18.3567 147.77 17.96 149.606 17.96C151.374 17.96 152.949 18.3453 154.332 19.116C155.714 19.8867 156.791 20.9747 157.562 22.38C158.332 23.7627 158.718 25.3607 158.718 27.174ZM154.672 25.95C154.649 24.522 154.139 23.3773 153.142 22.516C152.144 21.6547 150.909 21.224 149.436 21.224C148.098 21.224 146.954 21.6547 146.002 22.516C145.05 23.3547 144.483 24.4993 144.302 25.95H154.672ZM166.204 13.37L165.762 29.86H162.532L162.09 13.37H166.204ZM164.266 37.238C163.563 37.238 162.974 37 162.498 36.524C162.022 36.048 161.784 35.4587 161.784 34.756C161.784 34.0533 162.022 33.464 162.498 32.988C162.974 32.512 163.563 32.274 164.266 32.274C164.946 32.274 165.524 32.512 166 32.988C166.476 33.464 166.714 34.0533 166.714 34.756C166.714 35.4587 166.476 36.048 166 36.524C165.524 37 164.946 37.238 164.266 37.238Z" fill="white"/>
<path d="M7.91 53.242L4.732 59.318V63H3.458V59.318L0.266 53.242H1.68L4.088 58.184L6.496 53.242H7.91ZM12.8798 63.126C12.1611 63.126 11.5078 62.9627 10.9198 62.636C10.3411 62.3093 9.88378 61.8473 9.54778 61.25C9.22111 60.6433 9.05778 59.9433 9.05778 59.15C9.05778 58.366 9.22578 57.6753 9.56178 57.078C9.90711 56.4713 10.3738 56.0093 10.9618 55.692C11.5498 55.3653 12.2078 55.202 12.9358 55.202C13.6638 55.202 14.3218 55.3653 14.9098 55.692C15.4978 56.0093 15.9598 56.4667 16.2958 57.064C16.6411 57.6613 16.8138 58.3567 16.8138 59.15C16.8138 59.9433 16.6364 60.6433 16.2818 61.25C15.9364 61.8473 15.4651 62.3093 14.8678 62.636C14.2704 62.9627 13.6078 63.126 12.8798 63.126ZM12.8798 62.006C13.3371 62.006 13.7664 61.8987 14.1678 61.684C14.5691 61.4693 14.8911 61.1473 15.1338 60.718C15.3858 60.2887 15.5118 59.766 15.5118 59.15C15.5118 58.534 15.3904 58.0113 15.1478 57.582C14.9051 57.1527 14.5878 56.8353 14.1958 56.63C13.8038 56.4153 13.3791 56.308 12.9218 56.308C12.4551 56.308 12.0258 56.4153 11.6338 56.63C11.2511 56.8353 10.9431 57.1527 10.7098 57.582C10.4764 58.0113 10.3598 58.534 10.3598 59.15C10.3598 59.7753 10.4718 60.3027 10.6958 60.732C10.9291 61.1613 11.2371 61.4833 11.6198 61.698C12.0024 61.9033 12.4224 62.006 12.8798 62.006ZM25.5729 55.328V63H24.2989V61.866C24.0562 62.258 23.7155 62.566 23.2769 62.79C22.8475 63.0047 22.3715 63.112 21.8489 63.112C21.2515 63.112 20.7149 62.9907 20.2389 62.748C19.7629 62.496 19.3849 62.1227 19.1049 61.628C18.8342 61.1333 18.6989 60.5313 18.6989 59.822V55.328H19.9589V59.654C19.9589 60.41 20.1502 60.9933 20.5329 61.404C20.9155 61.8053 21.4382 62.006 22.1009 62.006C22.7822 62.006 23.3189 61.796 23.7109 61.376C24.1029 60.956 24.2989 60.3447 24.2989 59.542V55.328H25.5729ZM34.7324 63.126C34.1444 63.126 33.617 63.028 33.1504 62.832C32.6837 62.6267 32.315 62.3467 32.0444 61.992C31.7737 61.628 31.6244 61.2127 31.5964 60.746H32.9124C32.9497 61.1287 33.127 61.4413 33.4444 61.684C33.771 61.9267 34.1957 62.048 34.7184 62.048C35.2037 62.048 35.5864 61.9407 35.8664 61.726C36.1464 61.5113 36.2864 61.2407 36.2864 60.914C36.2864 60.578 36.137 60.3307 35.8384 60.172C35.5397 60.004 35.0777 59.8407 34.4524 59.682C33.883 59.5327 33.4164 59.3833 33.0524 59.234C32.6977 59.0753 32.3897 58.8467 32.1284 58.548C31.8764 58.24 31.7504 57.8387 31.7504 57.344C31.7504 56.952 31.867 56.5927 32.1004 56.266C32.3337 55.9393 32.665 55.6827 33.0944 55.496C33.5237 55.3 34.0137 55.202 34.5644 55.202C35.4137 55.202 36.0997 55.4167 36.6224 55.846C37.145 56.2753 37.425 56.8633 37.4624 57.61H36.1884C36.1604 57.2087 35.997 56.8867 35.6984 56.644C35.409 56.4013 35.017 56.28 34.5224 56.28C34.065 56.28 33.701 56.378 33.4304 56.574C33.1597 56.77 33.0244 57.0267 33.0244 57.344C33.0244 57.596 33.1037 57.806 33.2624 57.974C33.4304 58.1327 33.6357 58.2633 33.8784 58.366C34.1304 58.4593 34.4757 58.5667 34.9144 58.688C35.465 58.8373 35.913 58.9867 36.2584 59.136C36.6037 59.276 36.8977 59.4907 37.1404 59.78C37.3924 60.0693 37.523 60.4473 37.5324 60.914C37.5324 61.334 37.4157 61.712 37.1824 62.048C36.949 62.384 36.6177 62.65 36.1884 62.846C35.7684 63.0327 35.283 63.126 34.7324 63.126ZM46.4148 55.328V63H45.1408V61.866C44.8981 62.258 44.5575 62.566 44.1188 62.79C43.6895 63.0047 43.2135 63.112 42.6908 63.112C42.0935 63.112 41.5568 62.9907 41.0808 62.748C40.6048 62.496 40.2268 62.1227 39.9468 61.628C39.6761 61.1333 39.5408 60.5313 39.5408 59.822V55.328H40.8008V59.654C40.8008 60.41 40.9921 60.9933 41.3748 61.404C41.7575 61.8053 42.2801 62.006 42.9428 62.006C43.6241 62.006 44.1608 61.796 44.5528 61.376C44.9448 60.956 45.1408 60.3447 45.1408 59.542V55.328H46.4148ZM48.3699 59.15C48.3699 58.3567 48.5286 57.666 48.8459 57.078C49.1632 56.4807 49.6019 56.0187 50.1619 55.692C50.7312 55.3653 51.3799 55.202 52.1079 55.202C53.0506 55.202 53.8252 55.4307 54.4319 55.888C55.0479 56.3453 55.4539 56.98 55.6499 57.792H54.2779C54.1472 57.3253 53.8906 56.9567 53.5079 56.686C53.1346 56.4153 52.6679 56.28 52.1079 56.28C51.3799 56.28 50.7919 56.532 50.3439 57.036C49.8959 57.5307 49.6719 58.2353 49.6719 59.15C49.6719 60.074 49.8959 60.788 50.3439 61.292C50.7919 61.796 51.3799 62.048 52.1079 62.048C52.6679 62.048 53.1346 61.9173 53.5079 61.656C53.8812 61.3947 54.1379 61.0213 54.2779 60.536H55.6499C55.4446 61.32 55.0339 61.95 54.4179 62.426C53.8019 62.8927 53.0319 63.126 52.1079 63.126C51.3799 63.126 50.7312 62.9627 50.1619 62.636C49.6019 62.3093 49.1632 61.8473 48.8459 61.25C48.5286 60.6527 48.3699 59.9527 48.3699 59.15ZM57.1538 59.15C57.1538 58.3567 57.3125 57.666 57.6298 57.078C57.9471 56.4807 58.3858 56.0187 58.9458 55.692C59.5151 55.3653 60.1638 55.202 60.8918 55.202C61.8345 55.202 62.6091 55.4307 63.2158 55.888C63.8318 56.3453 64.2378 56.98 64.4338 57.792H63.0618C62.9311 57.3253 62.6745 56.9567 62.2918 56.686C61.9185 56.4153 61.4518 56.28 60.8918 56.28C60.1638 56.28 59.5758 56.532 59.1278 57.036C58.6798 57.5307 58.4558 58.2353 58.4558 59.15C58.4558 60.074 58.6798 60.788 59.1278 61.292C59.5758 61.796 60.1638 62.048 60.8918 62.048C61.4518 62.048 61.9185 61.9173 62.2918 61.656C62.6651 61.3947 62.9218 61.0213 63.0618 60.536H64.4338C64.2285 61.32 63.8178 61.95 63.2018 62.426C62.5858 62.8927 61.8158 63.126 60.8918 63.126C60.1638 63.126 59.5151 62.9627 58.9458 62.636C58.3858 62.3093 57.9471 61.8473 57.6298 61.25C57.3125 60.6527 57.1538 59.9527 57.1538 59.15ZM73.4137 58.87C73.4137 59.1127 73.3997 59.3693 73.3717 59.64H67.2397C67.2864 60.396 67.543 60.9887 68.0097 61.418C68.4857 61.838 69.0597 62.048 69.7317 62.048C70.2824 62.048 70.7397 61.922 71.1037 61.67C71.477 61.4087 71.7384 61.0633 71.8877 60.634H73.2597C73.0544 61.3713 72.6437 61.9733 72.0277 62.44C71.4117 62.8973 70.6464 63.126 69.7317 63.126C69.0037 63.126 68.3504 62.9627 67.7717 62.636C67.2024 62.3093 66.7544 61.8473 66.4277 61.25C66.101 60.6433 65.9377 59.9433 65.9377 59.15C65.9377 58.3567 66.0964 57.6613 66.4137 57.064C66.731 56.4667 67.1744 56.0093 67.7437 55.692C68.3224 55.3653 68.985 55.202 69.7317 55.202C70.4597 55.202 71.1037 55.3607 71.6637 55.678C72.2237 55.9953 72.653 56.434 72.9517 56.994C73.2597 57.5447 73.4137 58.17 73.4137 58.87ZM72.0977 58.604C72.0977 58.1187 71.9904 57.7033 71.7757 57.358C71.561 57.0033 71.267 56.7373 70.8937 56.56C70.5297 56.3733 70.1237 56.28 69.6757 56.28C69.0317 56.28 68.481 56.4853 68.0237 56.896C67.5757 57.3067 67.319 57.876 67.2537 58.604H72.0977ZM78.0913 63.126C77.5033 63.126 76.976 63.028 76.5093 62.832C76.0427 62.6267 75.674 62.3467 75.4033 61.992C75.1327 61.628 74.9833 61.2127 74.9553 60.746H76.2713C76.3087 61.1287 76.486 61.4413 76.8033 61.684C77.13 61.9267 77.5547 62.048 78.0773 62.048C78.5627 62.048 78.9453 61.9407 79.2253 61.726C79.5053 61.5113 79.6453 61.2407 79.6453 60.914C79.6453 60.578 79.496 60.3307 79.1973 60.172C78.8987 60.004 78.4367 59.8407 77.8113 59.682C77.242 59.5327 76.7753 59.3833 76.4113 59.234C76.0567 59.0753 75.7487 58.8467 75.4873 58.548C75.2353 58.24 75.1093 57.8387 75.1093 57.344C75.1093 56.952 75.226 56.5927 75.4593 56.266C75.6927 55.9393 76.024 55.6827 76.4533 55.496C76.8827 55.3 77.3727 55.202 77.9233 55.202C78.7727 55.202 79.4587 55.4167 79.9813 55.846C80.504 56.2753 80.784 56.8633 80.8213 57.61H79.5473C79.5193 57.2087 79.356 56.8867 79.0573 56.644C78.768 56.4013 78.376 56.28 77.8813 56.28C77.424 56.28 77.06 56.378 76.7893 56.574C76.5187 56.77 76.3833 57.0267 76.3833 57.344C76.3833 57.596 76.4627 57.806 76.6213 57.974C76.7893 58.1327 76.9947 58.2633 77.2373 58.366C77.4893 58.4593 77.8347 58.5667 78.2733 58.688C78.824 58.8373 79.272 58.9867 79.6173 59.136C79.9627 59.276 80.2567 59.4907 80.4993 59.78C80.7513 60.0693 80.882 60.4473 80.8913 60.914C80.8913 61.334 80.7747 61.712 80.5413 62.048C80.308 62.384 79.9767 62.65 79.5473 62.846C79.1273 63.0327 78.642 63.126 78.0913 63.126ZM85.6858 63.126C85.0978 63.126 84.5705 63.028 84.1038 62.832C83.6371 62.6267 83.2685 62.3467 82.9978 61.992C82.7271 61.628 82.5778 61.2127 82.5498 60.746H83.8658C83.9031 61.1287 84.0805 61.4413 84.3978 61.684C84.7245 61.9267 85.1491 62.048 85.6718 62.048C86.1571 62.048 86.5398 61.9407 86.8198 61.726C87.0998 61.5113 87.2398 61.2407 87.2398 60.914C87.2398 60.578 87.0905 60.3307 86.7918 60.172C86.4931 60.004 86.0311 59.8407 85.4058 59.682C84.8365 59.5327 84.3698 59.3833 84.0058 59.234C83.6511 59.0753 83.3431 58.8467 83.0818 58.548C82.8298 58.24 82.7038 57.8387 82.7038 57.344C82.7038 56.952 82.8205 56.5927 83.0538 56.266C83.2871 55.9393 83.6185 55.6827 84.0478 55.496C84.4771 55.3 84.9671 55.202 85.5178 55.202C86.3671 55.202 87.0531 55.4167 87.5758 55.846C88.0985 56.2753 88.3785 56.8633 88.4158 57.61H87.1418C87.1138 57.2087 86.9505 56.8867 86.6518 56.644C86.3625 56.4013 85.9705 56.28 85.4758 56.28C85.0185 56.28 84.6545 56.378 84.3838 56.574C84.1131 56.77 83.9778 57.0267 83.9778 57.344C83.9778 57.596 84.0571 57.806 84.2158 57.974C84.3838 58.1327 84.5891 58.2633 84.8318 58.366C85.0838 58.4593 85.4291 58.5667 85.8678 58.688C86.4185 58.8373 86.8665 58.9867 87.2118 59.136C87.5571 59.276 87.8511 59.4907 88.0938 59.78C88.3458 60.0693 88.4765 60.4473 88.4858 60.914C88.4858 61.334 88.3691 61.712 88.1358 62.048C87.9025 62.384 87.5711 62.65 87.1418 62.846C86.7218 63.0327 86.2365 63.126 85.6858 63.126ZM93.6863 56.378H92.0763V63H90.8023V56.378H89.8083V55.328H90.8023V54.782C90.8023 53.9233 91.0216 53.298 91.4603 52.906C91.9083 52.5047 92.6223 52.304 93.6023 52.304V53.368C93.0423 53.368 92.6456 53.48 92.4123 53.704C92.1883 53.9187 92.0763 54.278 92.0763 54.782V55.328H93.6863V56.378ZM102.256 55.328V63H100.982V61.866C100.739 62.258 100.398 62.566 99.9597 62.79C99.5303 63.0047 99.0543 63.112 98.5317 63.112C97.9343 63.112 97.3977 62.9907 96.9217 62.748C96.4457 62.496 96.0677 62.1227 95.7877 61.628C95.517 61.1333 95.3817 60.5313 95.3817 59.822V55.328H96.6417V59.654C96.6417 60.41 96.833 60.9933 97.2157 61.404C97.5983 61.8053 98.121 62.006 98.7837 62.006C99.465 62.006 100.002 61.796 100.394 61.376C100.786 60.956 100.982 60.3447 100.982 59.542V55.328H102.256ZM105.961 52.64V63H104.687V52.64H105.961ZM109.686 52.64V63H108.412V52.64H109.686ZM118.745 55.328L114.125 66.612H112.809L114.321 62.916L111.227 55.328H112.641L115.049 61.544L117.429 55.328H118.745ZM125.592 56.574C125.816 56.1353 126.134 55.7947 126.544 55.552C126.964 55.3093 127.473 55.188 128.07 55.188V56.504H127.734C126.306 56.504 125.592 57.2787 125.592 58.828V63H124.318V55.328H125.592V56.574ZM136.821 58.87C136.821 59.1127 136.807 59.3693 136.779 59.64H130.647C130.694 60.396 130.95 60.9887 131.417 61.418C131.893 61.838 132.467 62.048 133.139 62.048C133.69 62.048 134.147 61.922 134.511 61.67C134.884 61.4087 135.146 61.0633 135.295 60.634H136.667C136.462 61.3713 136.051 61.9733 135.435 62.44C134.819 62.8973 134.054 63.126 133.139 63.126C132.411 63.126 131.758 62.9627 131.179 62.636C130.61 62.3093 130.162 61.8473 129.835 61.25C129.508 60.6433 129.345 59.9433 129.345 59.15C129.345 58.3567 129.504 57.6613 129.821 57.064C130.138 56.4667 130.582 56.0093 131.151 55.692C131.73 55.3653 132.392 55.202 133.139 55.202C133.867 55.202 134.511 55.3607 135.071 55.678C135.631 55.9953 136.06 56.434 136.359 56.994C136.667 57.5447 136.821 58.17 136.821 58.87ZM135.505 58.604C135.505 58.1187 135.398 57.7033 135.183 57.358C134.968 57.0033 134.674 56.7373 134.301 56.56C133.937 56.3733 133.531 56.28 133.083 56.28C132.439 56.28 131.888 56.4853 131.431 56.896C130.983 57.3067 130.726 57.876 130.661 58.604H135.505ZM138.307 59.136C138.307 58.352 138.465 57.666 138.783 57.078C139.1 56.4807 139.534 56.0187 140.085 55.692C140.645 55.3653 141.265 55.202 141.947 55.202C142.619 55.202 143.202 55.3467 143.697 55.636C144.191 55.9253 144.56 56.2893 144.803 56.728V55.328H146.091V63H144.803V61.572C144.551 62.02 144.173 62.3933 143.669 62.692C143.174 62.9813 142.595 63.126 141.933 63.126C141.251 63.126 140.635 62.958 140.085 62.622C139.534 62.286 139.1 61.8147 138.783 61.208C138.465 60.6013 138.307 59.9107 138.307 59.136ZM144.803 59.15C144.803 58.5713 144.686 58.0673 144.453 57.638C144.219 57.2087 143.902 56.882 143.501 56.658C143.109 56.4247 142.675 56.308 142.199 56.308C141.723 56.308 141.289 56.42 140.897 56.644C140.505 56.868 140.192 57.1947 139.959 57.624C139.725 58.0533 139.609 58.5573 139.609 59.136C139.609 59.724 139.725 60.2373 139.959 60.676C140.192 61.1053 140.505 61.4367 140.897 61.67C141.289 61.894 141.723 62.006 142.199 62.006C142.675 62.006 143.109 61.894 143.501 61.67C143.902 61.4367 144.219 61.1053 144.453 60.676C144.686 60.2373 144.803 59.7287 144.803 59.15ZM148.048 59.136C148.048 58.352 148.206 57.666 148.524 57.078C148.841 56.4807 149.275 56.0187 149.826 55.692C150.386 55.3653 151.011 55.202 151.702 55.202C152.299 55.202 152.854 55.342 153.368 55.622C153.881 55.8927 154.273 56.252 154.544 56.7V52.64H155.832V63H154.544V61.558C154.292 62.0153 153.918 62.3933 153.424 62.692C152.929 62.9813 152.35 63.126 151.688 63.126C151.006 63.126 150.386 62.958 149.826 62.622C149.275 62.286 148.841 61.8147 148.524 61.208C148.206 60.6013 148.048 59.9107 148.048 59.136ZM154.544 59.15C154.544 58.5713 154.427 58.0673 154.194 57.638C153.96 57.2087 153.643 56.882 153.242 56.658C152.85 56.4247 152.416 56.308 151.94 56.308C151.464 56.308 151.03 56.42 150.638 56.644C150.246 56.868 149.933 57.1947 149.7 57.624C149.466 58.0533 149.35 58.5573 149.35 59.136C149.35 59.724 149.466 60.2373 149.7 60.676C149.933 61.1053 150.246 61.4367 150.638 61.67C151.03 61.894 151.464 62.006 151.94 62.006C152.416 62.006 152.85 61.894 153.242 61.67C153.643 61.4367 153.96 61.1053 154.194 60.676C154.427 60.2373 154.544 59.7287 154.544 59.15ZM163.831 56.378V60.9C163.831 61.2733 163.91 61.5393 164.069 61.698C164.228 61.8473 164.503 61.922 164.895 61.922H165.833V63H164.685C163.976 63 163.444 62.8367 163.089 62.51C162.734 62.1833 162.557 61.6467 162.557 60.9V56.378H161.563V55.328H162.557V53.396H163.831V55.328H165.833V56.378H163.831ZM171.465 55.188C172.043 55.188 172.566 55.314 173.033 55.566C173.499 55.8087 173.863 56.1773 174.125 56.672C174.395 57.1667 174.531 57.7687 174.531 58.478V63H173.271V58.66C173.271 57.8947 173.079 57.3113 172.697 56.91C172.314 56.4993 171.791 56.294 171.129 56.294C170.457 56.294 169.92 56.504 169.519 56.924C169.127 57.344 168.931 57.9553 168.931 58.758V63H167.657V52.64H168.931V56.42C169.183 56.028 169.528 55.7247 169.967 55.51C170.415 55.2953 170.914 55.188 171.465 55.188ZM177.55 54.082C177.307 54.082 177.102 53.998 176.934 53.83C176.766 53.662 176.682 53.4567 176.682 53.214C176.682 52.9713 176.766 52.766 176.934 52.598C177.102 52.43 177.307 52.346 177.55 52.346C177.783 52.346 177.979 52.43 178.138 52.598C178.306 52.766 178.39 52.9713 178.39 53.214C178.39 53.4567 178.306 53.662 178.138 53.83C177.979 53.998 177.783 54.082 177.55 54.082ZM178.166 55.328V63H176.892V55.328H178.166ZM183.333 63.126C182.745 63.126 182.218 63.028 181.751 62.832C181.284 62.6267 180.916 62.3467 180.645 61.992C180.374 61.628 180.225 61.2127 180.197 60.746H181.513C181.55 61.1287 181.728 61.4413 182.045 61.684C182.372 61.9267 182.796 62.048 183.319 62.048C183.804 62.048 184.187 61.9407 184.467 61.726C184.747 61.5113 184.887 61.2407 184.887 60.914C184.887 60.578 184.738 60.3307 184.439 60.172C184.14 60.004 183.678 59.8407 183.053 59.682C182.484 59.5327 182.017 59.3833 181.653 59.234C181.298 59.0753 180.99 58.8467 180.729 58.548C180.477 58.24 180.351 57.8387 180.351 57.344C180.351 56.952 180.468 56.5927 180.701 56.266C180.934 55.9393 181.266 55.6827 181.695 55.496C182.124 55.3 182.614 55.202 183.165 55.202C184.014 55.202 184.7 55.4167 185.223 55.846C185.746 56.2753 186.026 56.8633 186.063 57.61H184.789C184.761 57.2087 184.598 56.8867 184.299 56.644C184.01 56.4013 183.618 56.28 183.123 56.28C182.666 56.28 182.302 56.378 182.031 56.574C181.76 56.77 181.625 57.0267 181.625 57.344C181.625 57.596 181.704 57.806 181.863 57.974C182.031 58.1327 182.236 58.2633 182.479 58.366C182.731 58.4593 183.076 58.5667 183.515 58.688C184.066 58.8373 184.514 58.9867 184.859 59.136C185.204 59.276 185.498 59.4907 185.741 59.78C185.993 60.0693 186.124 60.4473 186.133 60.914C186.133 61.334 186.016 61.712 185.783 62.048C185.55 62.384 185.218 62.65 184.789 62.846C184.369 63.0327 183.884 63.126 183.333 63.126ZM1.736 72.082C1.49333 72.082 1.288 71.998 1.12 71.83C0.952 71.662 0.868 71.4567 0.868 71.214C0.868 70.9713 0.952 70.766 1.12 70.598C1.288 70.43 1.49333 70.346 1.736 70.346C1.96933 70.346 2.16533 70.43 2.324 70.598C2.492 70.766 2.576 70.9713 2.576 71.214C2.576 71.4567 2.492 71.662 2.324 71.83C2.16533 71.998 1.96933 72.082 1.736 72.082ZM2.352 73.328V81H1.078V73.328H2.352ZM14.0293 73.188C14.6266 73.188 15.1586 73.314 15.6253 73.566C16.092 73.8087 16.4606 74.1773 16.7313 74.672C17.002 75.1667 17.1373 75.7687 17.1373 76.478V81H15.8773V76.66C15.8773 75.8947 15.686 75.3113 15.3033 74.91C14.93 74.4993 14.4213 74.294 13.7773 74.294C13.1146 74.294 12.5873 74.5087 12.1953 74.938C11.8033 75.358 11.6073 75.9693 11.6073 76.772V81H10.3473V76.66C10.3473 75.8947 10.156 75.3113 9.77331 74.91C9.39998 74.4993 8.89131 74.294 8.24731 74.294C7.58465 74.294 7.05731 74.5087 6.66531 74.938C6.27331 75.358 6.07731 75.9693 6.07731 76.772V81H4.80331V73.328H6.07731V74.434C6.32931 74.0327 6.66531 73.7247 7.08531 73.51C7.51465 73.2953 7.98598 73.188 8.49931 73.188C9.14331 73.188 9.71265 73.3327 10.2073 73.622C10.702 73.9113 11.0706 74.336 11.3133 74.896C11.528 74.3547 11.8826 73.9347 12.3773 73.636C12.872 73.3373 13.4226 73.188 14.0293 73.188ZM20.7811 74.742C21.0331 74.3033 21.4065 73.9393 21.9011 73.65C22.4051 73.3513 22.9885 73.202 23.6511 73.202C24.3325 73.202 24.9485 73.3653 25.4991 73.692C26.0591 74.0187 26.4978 74.4807 26.8151 75.078C27.1325 75.666 27.2911 76.352 27.2911 77.136C27.2911 77.9107 27.1325 78.6013 26.8151 79.208C26.4978 79.8147 26.0591 80.286 25.4991 80.622C24.9485 80.958 24.3325 81.126 23.6511 81.126C22.9978 81.126 22.4191 80.9813 21.9151 80.692C21.4205 80.3933 21.0425 80.0247 20.7811 79.586V84.64H19.5071V73.328H20.7811V74.742ZM25.9891 77.136C25.9891 76.5573 25.8725 76.0533 25.6391 75.624C25.4058 75.1947 25.0885 74.868 24.6871 74.644C24.2951 74.42 23.8611 74.308 23.3851 74.308C22.9185 74.308 22.4845 74.4247 22.0831 74.658C21.6911 74.882 21.3738 75.2133 21.1311 75.652C20.8978 76.0813 20.7811 76.5807 20.7811 77.15C20.7811 77.7287 20.8978 78.2373 21.1311 78.676C21.3738 79.1053 21.6911 79.4367 22.0831 79.67C22.4845 79.894 22.9185 80.006 23.3851 80.006C23.8611 80.006 24.2951 79.894 24.6871 79.67C25.0885 79.4367 25.4058 79.1053 25.6391 78.676C25.8725 78.2373 25.9891 77.724 25.9891 77.136ZM32.5941 81.126C31.8754 81.126 31.2221 80.9627 30.6341 80.636C30.0554 80.3093 29.5981 79.8473 29.2621 79.25C28.9354 78.6433 28.7721 77.9433 28.7721 77.15C28.7721 76.366 28.9401 75.6753 29.2761 75.078C29.6214 74.4713 30.0881 74.0093 30.6761 73.692C31.2641 73.3653 31.9221 73.202 32.6501 73.202C33.3781 73.202 34.0361 73.3653 34.6241 73.692C35.2121 74.0093 35.6741 74.4667 36.0101 75.064C36.3554 75.6613 36.5281 76.3567 36.5281 77.15C36.5281 77.9433 36.3507 78.6433 35.9961 79.25C35.6507 79.8473 35.1794 80.3093 34.5821 80.636C33.9847 80.9627 33.3221 81.126 32.5941 81.126ZM32.5941 80.006C33.0514 80.006 33.4807 79.8987 33.8821 79.684C34.2834 79.4693 34.6054 79.1473 34.8481 78.718C35.1001 78.2887 35.2261 77.766 35.2261 77.15C35.2261 76.534 35.1047 76.0113 34.8621 75.582C34.6194 75.1527 34.3021 74.8353 33.9101 74.63C33.5181 74.4153 33.0934 74.308 32.6361 74.308C32.1694 74.308 31.7401 74.4153 31.3481 74.63C30.9654 74.8353 30.6574 75.1527 30.4241 75.582C30.1907 76.0113 30.0741 76.534 30.0741 77.15C30.0741 77.7753 30.1861 78.3027 30.4101 78.732C30.6434 79.1613 30.9514 79.4833 31.3341 79.698C31.7167 79.9033 32.1367 80.006 32.5941 80.006ZM39.7572 74.574C39.9812 74.1353 40.2985 73.7947 40.7092 73.552C41.1292 73.3093 41.6378 73.188 42.2352 73.188V74.504H41.8992C40.4712 74.504 39.7572 75.2787 39.7572 76.828V81H38.4832V73.328H39.7572V74.574ZM45.5398 74.378V78.9C45.5398 79.2733 45.6191 79.5393 45.7778 79.698C45.9365 79.8473 46.2118 79.922 46.6038 79.922H47.5418V81H46.3938C45.6845 81 45.1525 80.8367 44.7978 80.51C44.4431 80.1833 44.2658 79.6467 44.2658 78.9V74.378H43.2718V73.328H44.2658V71.396H45.5398V73.328H47.5418V74.378H45.5398ZM48.8894 77.136C48.8894 76.352 49.0481 75.666 49.3654 75.078C49.6828 74.4807 50.1168 74.0187 50.6674 73.692C51.2274 73.3653 51.8481 73.202 52.5294 73.202C53.2014 73.202 53.7848 73.3467 54.2794 73.636C54.7741 73.9253 55.1428 74.2893 55.3854 74.728V73.328H56.6734V81H55.3854V79.572C55.1334 80.02 54.7554 80.3933 54.2514 80.692C53.7568 80.9813 53.1781 81.126 52.5154 81.126C51.8341 81.126 51.2181 80.958 50.6674 80.622C50.1168 80.286 49.6828 79.8147 49.3654 79.208C49.0481 78.6013 48.8894 77.9107 48.8894 77.136ZM55.3854 77.15C55.3854 76.5713 55.2688 76.0673 55.0354 75.638C54.8021 75.2087 54.4848 74.882 54.0834 74.658C53.6914 74.4247 53.2574 74.308 52.7814 74.308C52.3054 74.308 51.8714 74.42 51.4794 74.644C51.0874 74.868 50.7748 75.1947 50.5414 75.624C50.3081 76.0533 50.1914 76.5573 50.1914 77.136C50.1914 77.724 50.3081 78.2373 50.5414 78.676C50.7748 79.1053 51.0874 79.4367 51.4794 79.67C51.8714 79.894 52.3054 80.006 52.7814 80.006C53.2574 80.006 53.6914 79.894 54.0834 79.67C54.4848 79.4367 54.8021 79.1053 55.0354 78.676C55.2688 78.2373 55.3854 77.7287 55.3854 77.15ZM62.8444 73.188C63.7777 73.188 64.5337 73.4727 65.1124 74.042C65.691 74.602 65.9804 75.414 65.9804 76.478V81H64.7204V76.66C64.7204 75.8947 64.529 75.3113 64.1464 74.91C63.7637 74.4993 63.241 74.294 62.5784 74.294C61.9064 74.294 61.3697 74.504 60.9684 74.924C60.5764 75.344 60.3804 75.9553 60.3804 76.758V81H59.1064V73.328H60.3804V74.42C60.6324 74.028 60.973 73.7247 61.4024 73.51C61.841 73.2953 62.3217 73.188 62.8444 73.188ZM69.8954 74.378V78.9C69.8954 79.2733 69.9748 79.5393 70.1334 79.698C70.2921 79.8473 70.5674 79.922 70.9594 79.922H71.8974V81H70.7494C70.0401 81 69.5081 80.8367 69.1534 80.51C68.7988 80.1833 68.6214 79.6467 68.6214 78.9V74.378H67.6274V73.328H68.6214V71.396H69.8954V73.328H71.8974V74.378H69.8954ZM86.9595 73.188C87.5568 73.188 88.0888 73.314 88.5555 73.566C89.0221 73.8087 89.3908 74.1773 89.6615 74.672C89.9321 75.1667 90.0675 75.7687 90.0675 76.478V81H88.8075V76.66C88.8075 75.8947 88.6161 75.3113 88.2335 74.91C87.8601 74.4993 87.3515 74.294 86.7075 74.294C86.0448 74.294 85.5175 74.5087 85.1255 74.938C84.7335 75.358 84.5375 75.9693 84.5375 76.772V81H83.2775V76.66C83.2775 75.8947 83.0861 75.3113 82.7035 74.91C82.3301 74.4993 81.8215 74.294 81.1775 74.294C80.5148 74.294 79.9875 74.5087 79.5955 74.938C79.2035 75.358 79.0075 75.9693 79.0075 76.772V81H77.7335V73.328H79.0075V74.434C79.2595 74.0327 79.5955 73.7247 80.0155 73.51C80.4448 73.2953 80.9161 73.188 81.4295 73.188C82.0735 73.188 82.6428 73.3327 83.1375 73.622C83.6321 73.9113 84.0008 74.336 84.2435 74.896C84.4581 74.3547 84.8128 73.9347 85.3075 73.636C85.8021 73.3373 86.3528 73.188 86.9595 73.188ZM99.4373 76.87C99.4373 77.1127 99.4233 77.3693 99.3953 77.64H93.2633C93.31 78.396 93.5666 78.9887 94.0333 79.418C94.5093 79.838 95.0833 80.048 95.7553 80.048C96.306 80.048 96.7633 79.922 97.1273 79.67C97.5006 79.4087 97.762 79.0633 97.9113 78.634H99.2833C99.078 79.3713 98.6673 79.9733 98.0513 80.44C97.4353 80.8973 96.67 81.126 95.7553 81.126C95.0273 81.126 94.374 80.9627 93.7953 80.636C93.226 80.3093 92.778 79.8473 92.4513 79.25C92.1246 78.6433 91.9613 77.9433 91.9613 77.15C91.9613 76.3567 92.12 75.6613 92.4373 75.064C92.7546 74.4667 93.198 74.0093 93.7673 73.692C94.346 73.3653 95.0086 73.202 95.7553 73.202C96.4833 73.202 97.1273 73.3607 97.6873 73.678C98.2473 73.9953 98.6766 74.434 98.9753 74.994C99.2833 75.5447 99.4373 76.17 99.4373 76.87ZM98.1213 76.604C98.1213 76.1187 98.014 75.7033 97.7993 75.358C97.5846 75.0033 97.2906 74.7373 96.9173 74.56C96.5533 74.3733 96.1473 74.28 95.6993 74.28C95.0553 74.28 94.5046 74.4853 94.0473 74.896C93.5993 75.3067 93.3426 75.876 93.2773 76.604H98.1213ZM104.115 81.126C103.527 81.126 103 81.028 102.533 80.832C102.066 80.6267 101.698 80.3467 101.427 79.992C101.156 79.628 101.007 79.2127 100.979 78.746H102.295C102.332 79.1287 102.51 79.4413 102.827 79.684C103.154 79.9267 103.578 80.048 104.101 80.048C104.586 80.048 104.969 79.9407 105.249 79.726C105.529 79.5113 105.669 79.2407 105.669 78.914C105.669 78.578 105.52 78.3307 105.221 78.172C104.922 78.004 104.46 77.8407 103.835 77.682C103.266 77.5327 102.799 77.3833 102.435 77.234C102.08 77.0753 101.772 76.8467 101.511 76.548C101.259 76.24 101.133 75.8387 101.133 75.344C101.133 74.952 101.25 74.5927 101.483 74.266C101.716 73.9393 102.048 73.6827 102.477 73.496C102.906 73.3 103.396 73.202 103.947 73.202C104.796 73.202 105.482 73.4167 106.005 73.846C106.528 74.2753 106.808 74.8633 106.845 75.61H105.571C105.543 75.2087 105.38 74.8867 105.081 74.644C104.792 74.4013 104.4 74.28 103.905 74.28C103.448 74.28 103.084 74.378 102.813 74.574C102.542 74.77 102.407 75.0267 102.407 75.344C102.407 75.596 102.486 75.806 102.645 75.974C102.813 76.1327 103.018 76.2633 103.261 76.366C103.513 76.4593 103.858 76.5667 104.297 76.688C104.848 76.8373 105.296 76.9867 105.641 77.136C105.986 77.276 106.28 77.4907 106.523 77.78C106.775 78.0693 106.906 78.4473 106.915 78.914C106.915 79.334 106.798 79.712 106.565 80.048C106.332 80.384 106 80.65 105.571 80.846C105.151 81.0327 104.666 81.126 104.115 81.126ZM111.709 81.126C111.121 81.126 110.594 81.028 110.127 80.832C109.661 80.6267 109.292 80.3467 109.021 79.992C108.751 79.628 108.601 79.2127 108.573 78.746H109.889C109.927 79.1287 110.104 79.4413 110.421 79.684C110.748 79.9267 111.173 80.048 111.695 80.048C112.181 80.048 112.563 79.9407 112.843 79.726C113.123 79.5113 113.263 79.2407 113.263 78.914C113.263 78.578 113.114 78.3307 112.815 78.172C112.517 78.004 112.055 77.8407 111.429 77.682C110.86 77.5327 110.393 77.3833 110.029 77.234C109.675 77.0753 109.367 76.8467 109.105 76.548C108.853 76.24 108.727 75.8387 108.727 75.344C108.727 74.952 108.844 74.5927 109.077 74.266C109.311 73.9393 109.642 73.6827 110.071 73.496C110.501 73.3 110.991 73.202 111.541 73.202C112.391 73.202 113.077 73.4167 113.599 73.846C114.122 74.2753 114.402 74.8633 114.439 75.61H113.165C113.137 75.2087 112.974 74.8867 112.675 74.644C112.386 74.4013 111.994 74.28 111.499 74.28C111.042 74.28 110.678 74.378 110.407 74.574C110.137 74.77 110.001 75.0267 110.001 75.344C110.001 75.596 110.081 75.806 110.239 75.974C110.407 76.1327 110.613 76.2633 110.855 76.366C111.107 76.4593 111.453 76.5667 111.891 76.688C112.442 76.8373 112.89 76.9867 113.235 77.136C113.581 77.276 113.875 77.4907 114.117 77.78C114.369 78.0693 114.5 78.4473 114.509 78.914C114.509 79.334 114.393 79.712 114.159 80.048C113.926 80.384 113.595 80.65 113.165 80.846C112.745 81.0327 112.26 81.126 111.709 81.126ZM116.112 77.136C116.112 76.352 116.271 75.666 116.588 75.078C116.905 74.4807 117.339 74.0187 117.89 73.692C118.45 73.3653 119.071 73.202 119.752 73.202C120.424 73.202 121.007 73.3467 121.502 73.636C121.997 73.9253 122.365 74.2893 122.608 74.728V73.328H123.896V81H122.608V79.572C122.356 80.02 121.978 80.3933 121.474 80.692C120.979 80.9813 120.401 81.126 119.738 81.126C119.057 81.126 118.441 80.958 117.89 80.622C117.339 80.286 116.905 79.8147 116.588 79.208C116.271 78.6013 116.112 77.9107 116.112 77.136ZM122.608 77.15C122.608 76.5713 122.491 76.0673 122.258 75.638C122.025 75.2087 121.707 74.882 121.306 74.658C120.914 74.4247 120.48 74.308 120.004 74.308C119.528 74.308 119.094 74.42 118.702 74.644C118.31 74.868 117.997 75.1947 117.764 75.624C117.531 76.0533 117.414 76.5573 117.414 77.136C117.414 77.724 117.531 78.2373 117.764 78.676C117.997 79.1053 118.31 79.4367 118.702 79.67C119.094 79.894 119.528 80.006 120.004 80.006C120.48 80.006 120.914 79.894 121.306 79.67C121.707 79.4367 122.025 79.1053 122.258 78.676C122.491 78.2373 122.608 77.7287 122.608 77.15ZM129.493 73.202C130.155 73.202 130.734 73.3467 131.229 73.636C131.733 73.9253 132.106 74.2893 132.349 74.728V73.328H133.637V81.168C133.637 81.868 133.487 82.4887 133.189 83.03C132.89 83.5807 132.461 84.01 131.901 84.318C131.35 84.626 130.706 84.78 129.969 84.78C128.961 84.78 128.121 84.542 127.449 84.066C126.777 83.59 126.38 82.9413 126.259 82.12H127.519C127.659 82.5867 127.948 82.96 128.387 83.24C128.825 83.5293 129.353 83.674 129.969 83.674C130.669 83.674 131.238 83.4547 131.677 83.016C132.125 82.5773 132.349 81.9613 132.349 81.168V79.558C132.097 80.006 131.723 80.3793 131.229 80.678C130.734 80.9767 130.155 81.126 129.493 81.126C128.811 81.126 128.191 80.958 127.631 80.622C127.08 80.286 126.646 79.8147 126.329 79.208C126.011 78.6013 125.853 77.9107 125.853 77.136C125.853 76.352 126.011 75.666 126.329 75.078C126.646 74.4807 127.08 74.0187 127.631 73.692C128.191 73.3653 128.811 73.202 129.493 73.202ZM132.349 77.15C132.349 76.5713 132.232 76.0673 131.999 75.638C131.765 75.2087 131.448 74.882 131.047 74.658C130.655 74.4247 130.221 74.308 129.745 74.308C129.269 74.308 128.835 74.42 128.443 74.644C128.051 74.868 127.738 75.1947 127.505 75.624C127.271 76.0533 127.155 76.5573 127.155 77.136C127.155 77.724 127.271 78.2373 127.505 78.676C127.738 79.1053 128.051 79.4367 128.443 79.67C128.835 79.894 129.269 80.006 129.745 80.006C130.221 80.006 130.655 79.894 131.047 79.67C131.448 79.4367 131.765 79.1053 131.999 78.676C132.232 78.2373 132.349 77.7287 132.349 77.15ZM143.07 76.87C143.07 77.1127 143.056 77.3693 143.028 77.64H136.896C136.942 78.396 137.199 78.9887 137.666 79.418C138.142 79.838 138.716 80.048 139.388 80.048C139.938 80.048 140.396 79.922 140.76 79.67C141.133 79.4087 141.394 79.0633 141.544 78.634H142.916C142.71 79.3713 142.3 79.9733 141.684 80.44C141.068 80.8973 140.302 81.126 139.388 81.126C138.66 81.126 138.006 80.9627 137.428 80.636C136.858 80.3093 136.41 79.8473 136.084 79.25C135.757 78.6433 135.594 77.9433 135.594 77.15C135.594 76.3567 135.752 75.6613 136.07 75.064C136.387 74.4667 136.83 74.0093 137.4 73.692C137.978 73.3653 138.641 73.202 139.388 73.202C140.116 73.202 140.76 73.3607 141.32 73.678C141.88 73.9953 142.309 74.434 142.608 74.994C142.916 75.5447 143.07 76.17 143.07 76.87ZM141.754 76.604C141.754 76.1187 141.646 75.7033 141.432 75.358C141.217 75.0033 140.923 74.7373 140.55 74.56C140.186 74.3733 139.78 74.28 139.332 74.28C138.688 74.28 138.137 74.4853 137.68 74.896C137.232 75.3067 136.975 75.876 136.91 76.604H141.754ZM145.437 81.084C145.195 81.084 144.989 81 144.821 80.832C144.653 80.664 144.569 80.4587 144.569 80.216C144.569 79.9733 144.653 79.768 144.821 79.6C144.989 79.432 145.195 79.348 145.437 79.348C145.671 79.348 145.867 79.432 146.025 79.6C146.193 79.768 146.277 79.9733 146.277 80.216C146.277 80.4587 146.193 80.664 146.025 80.832C145.867 81 145.671 81.084 145.437 81.084Z" fill="white"/>
</svg>
