<svg width="50" height="45" viewBox="0 0 50 45" fill="none" xmlns="http://www.w3.org/2000/svg">
<ellipse cx="23.3745" cy="23.3534" rx="21.2495" ry="19.4823" fill="#F4F3FA"/>
<ellipse cx="3.19136" cy="5.81933" rx="2.12495" ry="1.94823" fill="#EFF18D"/>
<ellipse cx="20.7207" cy="1.46117" rx="1.59371" ry="1.46117" fill="#BACBBD"/>
<path d="M32.4043 3.87109L33.7845 4.60168V6.06285L32.4043 6.79344L31.0241 6.06285V4.60168L32.4043 3.87109Z" fill="#BDA5C8"/>
<path d="M13.2364 40.5705C13.4274 40.0313 14.2013 40.0313 14.3924 40.5705V40.5705C14.4741 40.8009 14.6934 40.9587 14.9379 40.9587H15.0241C15.5696 40.9587 15.7836 41.6663 15.3297 41.9687V41.9687C15.1195 42.1086 15.0322 42.3757 15.1165 42.6137V42.6137C15.2984 43.1269 14.7251 43.5847 14.2721 43.2829L14.1544 43.2045C13.9485 43.0674 13.6803 43.0674 13.4744 43.2045L13.3567 43.2829C12.9036 43.5847 12.3304 43.1269 12.5122 42.6137V42.6137C12.5966 42.3757 12.5092 42.1086 12.2991 41.9687V41.9687C11.8451 41.6663 12.0592 40.9587 12.6046 40.9587H12.6909C12.9354 40.9587 13.1547 40.8009 13.2364 40.5705V40.5705Z" fill="#9776B8"/>
<g filter="url(#filter0_i_180_190)">
<rect width="3.05599" height="3.05953" transform="matrix(0.732565 -0.680697 0.74158 0.670864 0 23.4844)" fill="white"/>
</g>
<path d="M42.9535 15.7135L43.5541 14.6326L45.7189 13.2347L48.1798 12.3387L49.4952 12.4695L48.8946 13.5504L46.7298 14.9483L44.2689 15.8443L42.9535 15.7135Z" fill="#97D9BD"/>
<path d="M41.8233 30.1719L42.8226 29.7927L44.6841 30.159L46.3172 31.056L46.7654 31.9584L45.7661 32.3376L43.9046 31.9714L42.2715 31.0743L41.8233 30.1719Z" fill="#E76FF2"/>
<rect width="3.03213" height="3.08317" transform="matrix(0.667865 0.744282 -0.798355 0.602187 40.709 40.8867)" fill="#F0D2D2"/>
<path d="M25.4999 38.9395L25.8106 40.2002L27.0025 39.5101L26.2498 40.6029L27.6249 40.8877L26.2498 41.1725L27.0025 42.2653L25.8106 41.5752L25.4999 42.8359L25.1893 41.5752L23.9974 42.2653L24.7501 41.1725L23.375 40.8877L24.7501 40.6029L23.9974 39.5101L25.1893 40.2002L25.4999 38.9395Z" fill="#F5CCAD"/>
<g clip-path="url(#clip0_180_190)">
<path d="M6 20.84C6 18.1833 6 16.8549 6.60596 15.8833C6.92877 15.3657 7.36568 14.9288 7.88328 14.606C8.85491 14 10.1833 14 12.84 14H34.16C36.8167 14 38.1451 14 39.1167 14.606C39.6343 14.9288 40.0712 15.3657 40.394 15.8833C41 16.8549 41 18.1833 41 20.84V27.16C41 29.8167 41 31.1451 40.394 32.1167C40.0712 32.6343 39.6343 33.0712 39.1167 33.394C38.1451 34 36.8167 34 34.16 34H12.84C10.1833 34 8.85491 34 7.88328 33.394C7.36568 33.0712 6.92877 32.6343 6.60596 32.1167C6 31.1451 6 29.8167 6 27.16V20.84Z" fill="#A3DEBA"/>
<rect x="11" y="17" width="25" height="13" rx="2" fill="#EFFEFE"/>
<path d="M35.8423 16.2719C35.3358 16.0716 35.0827 15.5027 35.2731 14.9923L35.6933 13.8664C35.889 13.3418 36.4772 13.0802 36.9979 13.286L38.1155 13.7279C38.6221 13.9282 38.8752 14.4971 38.6847 15.0075L38.2645 16.1334C38.0688 16.658 37.4806 16.9196 36.96 16.7138L35.8423 16.2719Z" fill="#B9EEB4"/>
<path d="M39.2103 33.5673C39.062 33.8712 38.7703 34.0795 38.4348 34.1211L36.1336 34.4064C35.3457 34.5041 34.7636 33.6888 35.1119 32.9753L36.1291 30.8916C36.2774 30.5878 36.5692 30.3795 36.9047 30.3379L39.2059 30.0525C39.9938 29.9548 40.5758 30.7701 40.2275 31.4836L39.2103 33.5673Z" fill="#B9EEB4"/>
<path d="M8.71557 33.365C8.28155 33.2749 7.95867 32.9098 7.92229 32.468L7.78606 30.8139C7.73123 30.1482 8.33201 29.6169 8.98603 29.7527L10.6111 30.0902C11.0451 30.1803 11.368 30.5455 11.4043 30.9872L11.5406 32.6413C11.5954 33.3071 10.9946 33.8384 10.3406 33.7025L8.71557 33.365Z" fill="#B9EEB4"/>
<path d="M9.02165 15.1228C9.13694 14.8936 9.33592 14.7175 9.57743 14.6309L12.5333 13.5709C13.3833 13.2661 14.17 14.1549 13.7642 14.9616L12.3531 17.7669C12.2378 17.9961 12.0388 18.1722 11.7973 18.2588L8.84144 19.3188C7.99144 19.6236 7.20476 18.7348 7.61054 17.9281L9.02165 15.1228Z" fill="#B9EEB4"/>
<path d="M12 14.0001C26.8571 16.666 34 12 37 16" stroke="#B9EEB4" stroke-width="2"/>
<path d="M12.0133 33.8896C14.9942 30.5593 34.5058 32.5182 34.0153 34.1776" stroke="#B9EEB4" stroke-width="2"/>
<rect x="16.1344" y="9.7069" width="5" height="18.0187" transform="rotate(43.6075 16.1344 9.7069)" fill="#54C0D1" stroke="#4D9A5A"/>
<rect x="39.9" y="19.7069" width="5" height="19.1297" transform="rotate(43.6075 39.9 19.7069)" fill="#54C0D1" stroke="#4D9A5A"/>
<path d="M19.1404 27L17.2604 20.5H19.0804L19.7204 23.34C19.7737 23.5667 19.8237 23.7967 19.8704 24.03C19.9237 24.2567 19.977 24.4833 20.0304 24.71C20.0837 24.9367 20.1404 25.1667 20.2004 25.4H20.2404C20.3004 25.1667 20.3537 24.9367 20.4004 24.71C20.4537 24.4833 20.507 24.2567 20.5604 24.03C20.6137 23.7967 20.667 23.5667 20.7204 23.34L21.4204 20.5H23.1804L21.2204 27H19.1404ZM23.803 27V20.5H28.003V21.94H25.523V22.96H27.643V24.4H25.523V25.56H28.103V27H23.803ZM25.083 20L26.283 18.4H28.183L28.283 18.58L26.483 20H25.083Z" fill="#4D9A5A"/>
</g>
<rect x="8.5" y="14.5" width="30" height="18" rx="1.5" stroke="#4D9A5A"/>
<defs>
<filter id="filter0_i_180_190" x="0" y="21.4043" width="4.50781" height="4.13281" filterUnits="userSpaceOnUse" color-interpolation-filters="sRGB">
<feFlood flood-opacity="0" result="BackgroundImageFix"/>
<feBlend mode="normal" in="SourceGraphic" in2="BackgroundImageFix" result="shape"/>
<feColorMatrix in="SourceAlpha" type="matrix" values="0 0 0 0 0 0 0 0 0 0 0 0 0 0 0 0 0 0 127 0" result="hardAlpha"/>
<feOffset/>
<feGaussianBlur stdDeviation="1"/>
<feComposite in2="hardAlpha" operator="arithmetic" k2="-1" k3="1"/>
<feColorMatrix type="matrix" values="0 0 0 0 0.135396 0 0 0 0 0.479423 0 0 0 0 0.672938 0 0 0 1 0"/>
<feBlend mode="normal" in2="shape" result="effect1_innerShadow_180_190"/>
</filter>
<clipPath id="clip0_180_190">
<rect x="8" y="14" width="31" height="19" rx="2" fill="white"/>
</clipPath>
</defs>
</svg>
